<svg width="26" height="26" viewBox="0 0 26 26" fill="none" xmlns="http://www.w3.org/2000/svg">
<path d="M11.917 7.58329H14.0837V9.74996H11.917V7.58329ZM11.917 11.9166H14.0837V18.4166H11.917V11.9166ZM13.0003 2.16663C7.02033 2.16663 2.16699 7.01996 2.16699 13C2.16699 18.98 7.02033 23.8333 13.0003 23.8333C18.9803 23.8333 23.8337 18.98 23.8337 13C23.8337 7.01996 18.9803 2.16663 13.0003 2.16663ZM13.0003 21.6666C8.22283 21.6666 4.33366 17.7775 4.33366 13C4.33366 8.22246 8.22283 4.33329 13.0003 4.33329C17.7778 4.33329 21.667 8.22246 21.667 13C21.667 17.7775 17.7778 21.6666 13.0003 21.6666Z" fill="#323232"/>
</svg>
