<svg width="57" height="33" viewBox="0 0 57 33" fill="none" xmlns="http://www.w3.org/2000/svg">
<rect width="57" height="33" rx="3" fill="url(#paint0_linear_1833_22309)"/>
<path d="M39.512 28.035H40.464L43.747 23.1H42.536L40.366 26.516L40.03 23.1H38.875L39.512 28.035ZM44.1784 23.835H45.2984L45.5574 22.89H44.4374L44.1784 23.835ZM43.0864 28H44.1504L45.1584 24.248H44.0944L43.0864 28ZM46.6967 28.084C46.9207 28.084 47.1261 28.0537 47.3127 27.993C47.5041 27.9323 47.6674 27.846 47.8027 27.734C47.9381 27.6173 48.0431 27.4773 48.1177 27.314C48.1971 27.1507 48.2367 26.9663 48.2367 26.761C48.2367 26.6163 48.2064 26.4903 48.1457 26.383C48.0851 26.271 48.0057 26.173 47.9077 26.089C47.8097 26.005 47.6977 25.9327 47.5717 25.872C47.4504 25.8113 47.3291 25.753 47.2077 25.697C47.0491 25.627 46.9254 25.564 46.8367 25.508C46.7527 25.4473 46.7107 25.3797 46.7107 25.305C46.7107 25.207 46.7457 25.13 46.8157 25.074C46.8904 25.018 46.9931 24.99 47.1237 24.99C47.2777 24.99 47.4341 25.0203 47.5927 25.081C47.7514 25.1417 47.9217 25.2443 48.1037 25.389L48.6777 24.717C48.5984 24.647 48.5051 24.5817 48.3977 24.521C48.2951 24.4557 48.1784 24.3973 48.0477 24.346C47.9217 24.2947 47.7864 24.255 47.6417 24.227C47.5017 24.1943 47.3547 24.178 47.2007 24.178C46.9674 24.178 46.7574 24.213 46.5707 24.283C46.3841 24.3483 46.2254 24.4393 46.0947 24.556C45.9687 24.6727 45.8707 24.8127 45.8007 24.976C45.7307 25.1347 45.6957 25.3073 45.6957 25.494C45.6957 25.6433 45.7237 25.774 45.7797 25.886C45.8404 25.9933 45.9197 26.089 46.0177 26.173C46.1204 26.257 46.2371 26.334 46.3677 26.404C46.4984 26.4693 46.6384 26.5323 46.7877 26.593C46.9184 26.649 47.0234 26.705 47.1027 26.761C47.1821 26.8123 47.2217 26.873 47.2217 26.943C47.2217 27.0503 47.1821 27.132 47.1027 27.188C47.0234 27.244 46.9137 27.272 46.7737 27.272C46.6057 27.272 46.4214 27.237 46.2207 27.167C46.0201 27.097 45.8217 26.964 45.6257 26.768L45.0097 27.405C45.1217 27.5217 45.2454 27.622 45.3807 27.706C45.5161 27.79 45.6561 27.86 45.8007 27.916C45.9501 27.972 46.1017 28.014 46.2557 28.042C46.4097 28.07 46.5567 28.084 46.6967 28.084ZM49.8187 28.07C50.0427 28.07 50.2481 28.028 50.4347 27.944C50.6214 27.8553 50.7894 27.7293 50.9387 27.566L50.8267 28H51.8557L52.4087 25.928C52.4321 25.8347 52.4507 25.7413 52.4647 25.648C52.4834 25.5547 52.4927 25.459 52.4927 25.361C52.4927 24.9923 52.3667 24.7077 52.1147 24.507C51.8627 24.3063 51.4824 24.206 50.9737 24.206C50.7077 24.206 50.4581 24.2317 50.2247 24.283C49.9914 24.3297 49.7767 24.3927 49.5807 24.472L49.7487 25.312C49.8841 25.256 50.0381 25.2093 50.2107 25.172C50.3881 25.13 50.5677 25.109 50.7497 25.109C51.0157 25.109 51.2001 25.151 51.3027 25.235C51.4054 25.3143 51.4567 25.4193 51.4567 25.55C51.4567 25.606 51.4521 25.6573 51.4427 25.704C51.4334 25.746 51.4241 25.788 51.4147 25.83L51.4007 25.879C51.2421 25.8277 51.0764 25.788 50.9037 25.76C50.7357 25.7273 50.5491 25.711 50.3437 25.711C50.1151 25.711 49.9027 25.7413 49.7067 25.802C49.5107 25.858 49.3404 25.9443 49.1957 26.061C49.0511 26.1777 48.9367 26.32 48.8527 26.488C48.7687 26.656 48.7267 26.8473 48.7267 27.062C48.7267 27.2113 48.7524 27.3467 48.8037 27.468C48.8597 27.5893 48.9344 27.6967 49.0277 27.79C49.1257 27.8787 49.2401 27.9487 49.3707 28C49.5061 28.0467 49.6554 28.07 49.8187 28.07ZM50.2737 27.342C50.1244 27.342 50.0054 27.3047 49.9167 27.23C49.8281 27.1553 49.7837 27.0597 49.7837 26.943C49.7837 26.761 49.8537 26.6187 49.9937 26.516C50.1384 26.4087 50.3227 26.355 50.5467 26.355C50.6774 26.355 50.8034 26.369 50.9247 26.397C51.0461 26.4203 51.1534 26.4507 51.2467 26.488L51.2187 26.586C51.1907 26.6887 51.1464 26.7867 51.0857 26.88C51.0251 26.9687 50.9527 27.048 50.8687 27.118C50.7847 27.188 50.6914 27.244 50.5887 27.286C50.4907 27.3233 50.3857 27.342 50.2737 27.342Z" fill="white"/>
<defs>
<linearGradient id="paint0_linear_1833_22309" x1="2.30078" y1="6.95225" x2="60.6122" y2="25.0587" gradientUnits="userSpaceOnUse">
<stop stopColor="#6A58FB"/>
<stop offset="1" stopColor="#4599F4"/>
</linearGradient>
</defs>
</svg>
