<svg width="59" height="58" viewBox="0 0 59 58" fill="none" xmlns="http://www.w3.org/2000/svg">
<path d="M36.2191 31.2104L30.7816 25.7729C30.4417 25.4331 29.9808 25.2422 29.5002 25.2422C29.0196 25.2422 28.5586 25.4331 28.2188 25.7729L22.7813 31.2104C22.4511 31.5522 22.2684 32.01 22.2725 32.4853C22.2767 32.9605 22.4673 33.4151 22.8033 33.7512C23.1394 34.0872 23.594 34.2778 24.0692 34.282C24.5444 34.2861 25.0023 34.1034 25.3441 33.7732L27.6877 31.4297V41.5018C27.6877 41.9825 27.8786 42.4435 28.2186 42.7834C28.5585 43.1233 29.0195 43.3143 29.5002 43.3143C29.9809 43.3143 30.4419 43.1233 30.7818 42.7834C31.1217 42.4435 31.3127 41.9825 31.3127 41.5018V31.4297L33.6562 33.7732C33.9981 34.1034 34.4559 34.2861 34.9312 34.282C35.4064 34.2778 35.861 34.0872 36.197 33.7512C36.5331 33.4151 36.7237 32.9605 36.7278 32.4853C36.732 32.01 36.5493 31.5522 36.2191 31.2104Z" fill="url(#paint0_linear_4794_66761)"/>
<path d="M45.8125 18.1244C45.1739 18.1236 44.5365 18.1788 43.9076 18.2893C43.5218 14.9173 41.9653 11.7875 39.5093 9.44495C37.0534 7.10243 33.8535 5.69567 30.467 5.46969C27.0805 5.24371 23.7221 6.21283 20.9766 8.20825C18.2312 10.2037 16.2727 13.099 15.4423 16.3898C14.9946 16.3377 14.5444 16.3116 14.0938 16.3119C10.9692 16.3119 7.97256 17.5531 5.76315 19.7625C3.55374 21.9719 2.3125 24.9685 2.3125 28.0931C2.3125 31.2177 3.55374 34.2143 5.76315 36.4237C7.97256 38.6331 10.9692 39.8744 14.0938 39.8744H20.4375C20.9182 39.8744 21.3792 39.6834 21.7191 39.3435C22.059 39.0036 22.25 38.5426 22.25 38.0619C22.25 37.5812 22.059 37.1201 21.7191 36.7802C21.3792 36.4403 20.9182 36.2494 20.4375 36.2494H14.0938C11.9306 36.2494 9.856 35.39 8.32641 33.8605C6.79682 32.3309 5.9375 30.2563 5.9375 28.0931C5.9375 25.9299 6.79682 23.8554 8.32641 22.3258C9.856 20.7962 11.9306 19.9369 14.0938 19.9369C14.8663 19.9356 15.6347 20.0492 16.3739 20.274C16.6293 20.3519 16.8988 20.3723 17.1631 20.3339C17.4274 20.2955 17.6799 20.1991 17.9026 20.0518C18.1253 19.9044 18.3127 19.7096 18.4514 19.4814C18.59 19.2532 18.6766 18.9971 18.7048 18.7316C19.0375 15.9902 20.4007 13.478 22.5178 11.7049C24.6349 9.93174 27.3472 9.03041 30.1044 9.18377C32.8617 9.33713 35.4574 10.5337 37.3647 12.5307C39.2721 14.5277 40.3483 17.1755 40.375 19.9369C40.3805 20.1135 40.3744 20.2903 40.3569 20.4661C40.3127 20.7867 40.3551 21.1132 40.4797 21.4118C40.6043 21.7104 40.8066 21.9702 41.0655 22.1643C41.3245 22.3583 41.6307 22.4795 41.9523 22.5152C42.2739 22.5509 42.5992 22.4999 42.8944 22.3674C43.8115 21.9544 44.8067 21.7436 45.8125 21.7494C47.7353 21.7494 49.5794 22.5132 50.939 23.8728C52.2987 25.2325 53.0625 27.0765 53.0625 28.9994C53.0625 30.9222 52.2987 32.7663 50.939 34.1259C49.5794 35.4855 47.7353 36.2494 45.8125 36.2494H38.5625C38.0818 36.2494 37.6208 36.4403 37.2809 36.7802C36.941 37.1201 36.75 37.5812 36.75 38.0619C36.75 38.5426 36.941 39.0036 37.2809 39.3435C37.6208 39.6834 38.0818 39.8744 38.5625 39.8744H45.8125C48.6967 39.8744 51.4628 38.7286 53.5023 36.6892C55.5417 34.6497 56.6875 31.8836 56.6875 28.9994C56.6875 26.1151 55.5417 23.349 53.5023 21.3096C51.4628 19.2701 48.6967 18.1244 45.8125 18.1244Z" fill="#7B838A"/>
<defs>
<linearGradient id="paint0_linear_4794_66761" x1="22.8559" y1="29.0495" x2="38.7414" y2="31.3338" gradientUnits="userSpaceOnUse">
<stop stop-color="#6A58FB"/>
<stop offset="1" stop-color="#4599F4"/>
</linearGradient>
</defs>
</svg>
