<svg width="58" height="58" viewBox="0 0 58 58" fill="none" xmlns="http://www.w3.org/2000/svg">
<path d="M35.7201 31.2104L30.2826 25.7729C29.9427 25.4331 29.4818 25.2422 29.0012 25.2422C28.5206 25.2422 28.0596 25.4331 27.7197 25.7729L22.2822 31.2104C21.9521 31.5522 21.7694 32.01 21.7735 32.4853C21.7776 32.9605 21.9683 33.4151 22.3043 33.7512C22.6404 34.0872 23.095 34.2778 23.5702 34.282C24.0454 34.2861 24.5033 34.1034 24.8451 33.7732L27.1887 31.4297V41.5018C27.1887 41.9825 27.3796 42.4435 27.7195 42.7834C28.0594 43.1233 28.5205 43.3143 29.0012 43.3143C29.4819 43.3143 29.9429 43.1233 30.2828 42.7834C30.6227 42.4435 30.8137 41.9825 30.8137 41.5018V31.4297L33.1572 33.7732C33.4991 34.1034 33.9569 34.2861 34.4321 34.282C34.9074 34.2778 35.362 34.0872 35.698 33.7512C36.0341 33.4151 36.2247 32.9605 36.2288 32.4853C36.233 32.01 36.0503 31.5522 35.7201 31.2104Z" fill="url(#paint0_linear_4761_56030)"/>
<path d="M45.3125 18.1244C44.6739 18.1236 44.0365 18.1788 43.4076 18.2893C43.0218 14.9173 41.4653 11.7875 39.0093 9.44495C36.5534 7.10243 33.3535 5.69567 29.967 5.46969C26.5805 5.24371 23.2221 6.21283 20.4766 8.20825C17.7312 10.2037 15.7727 13.099 14.9423 16.3898C14.4946 16.3377 14.0444 16.3116 13.5938 16.3119C10.4692 16.3119 7.47256 17.5531 5.26315 19.7625C3.05374 21.9719 1.8125 24.9685 1.8125 28.0931C1.8125 31.2177 3.05374 34.2143 5.26315 36.4237C7.47256 38.6331 10.4692 39.8744 13.5938 39.8744H19.9375C20.4182 39.8744 20.8792 39.6834 21.2191 39.3435C21.559 39.0036 21.75 38.5426 21.75 38.0619C21.75 37.5812 21.559 37.1201 21.2191 36.7802C20.8792 36.4403 20.4182 36.2494 19.9375 36.2494H13.5938C11.4306 36.2494 9.356 35.39 7.82641 33.8605C6.29682 32.3309 5.4375 30.2563 5.4375 28.0931C5.4375 25.9299 6.29682 23.8554 7.82641 22.3258C9.356 20.7962 11.4306 19.9369 13.5938 19.9369C14.3663 19.9356 15.1347 20.0492 15.8739 20.274C16.1293 20.3519 16.3988 20.3723 16.6631 20.3339C16.9274 20.2955 17.1799 20.1991 17.4026 20.0518C17.6253 19.9044 17.8127 19.7096 17.9514 19.4814C18.09 19.2532 18.1766 18.9971 18.2047 18.7316C18.5375 15.9902 19.9007 13.478 22.0178 11.7049C24.1349 9.93174 26.8472 9.03041 29.6044 9.18377C32.3617 9.33713 34.9574 10.5337 36.8647 12.5307C38.7721 14.5277 39.8483 17.1755 39.875 19.9369C39.8805 20.1135 39.8744 20.2903 39.8569 20.4661C39.8127 20.7867 39.8551 21.1132 39.9797 21.4118C40.1043 21.7104 40.3066 21.9702 40.5655 22.1643C40.8245 22.3583 41.1307 22.4795 41.4523 22.5152C41.7739 22.5509 42.0992 22.4999 42.3944 22.3674C43.3115 21.9544 44.3067 21.7436 45.3125 21.7494C47.2353 21.7494 49.0794 22.5132 50.439 23.8728C51.7987 25.2325 52.5625 27.0765 52.5625 28.9994C52.5625 30.9222 51.7987 32.7662 50.439 34.1259C49.0794 35.4855 47.2353 36.2494 45.3125 36.2494H38.0625C37.5818 36.2494 37.1208 36.4403 36.7809 36.7802C36.441 37.1201 36.25 37.5812 36.25 38.0619C36.25 38.5426 36.441 39.0036 36.7809 39.3435C37.1208 39.6834 37.5818 39.8744 38.0625 39.8744H45.3125C48.1967 39.8744 50.9628 38.7286 53.0023 36.6892C55.0417 34.6497 56.1875 31.8836 56.1875 28.9994C56.1875 26.1151 55.0417 23.349 53.0023 21.3096C50.9628 19.2701 48.1967 18.1244 45.3125 18.1244V18.1244Z" fill="#7B838A"/>
<defs>
<linearGradient id="paint0_linear_4761_56030" x1="22.3569" y1="29.0495" x2="38.2424" y2="31.3338" gradientUnits="userSpaceOnUse">
<stop stop-color="#6A58FB"/>
<stop offset="1" stop-color="#4599F4"/>
</linearGradient>
</defs>
</svg>
