<svg width="20" height="16" viewBox="0 0 20 16" fill="none" xmlns="http://www.w3.org/2000/svg">
<path d="M7.33929 8C7.33929 8.72894 7.60995 9.42802 8.09172 9.94346C8.57349 10.4589 9.22692 10.7485 9.90825 10.7485C10.5896 10.7485 11.243 10.4589 11.7248 9.94346C12.2065 9.42802 12.4772 8.72894 12.4772 8C12.4772 7.27106 12.2065 6.57198 11.7248 6.05654C11.243 5.5411 10.5896 5.25153 9.90825 5.25153C9.22692 5.25153 8.57349 5.5411 8.09172 6.05654C7.60995 6.57198 7.33929 7.27106 7.33929 8V8ZM19.8675 7.36687C17.6931 2.46626 14.4062 0 9.99999 0C5.59148 0 2.30689 2.46626 0.132451 7.36932C0.0452335 7.56691 0 7.78271 0 8.00123C0 8.21974 0.0452335 8.43554 0.132451 8.63313C2.30689 13.5337 5.59378 16 9.99999 16C14.4085 16 17.6931 13.5337 19.8675 8.63067C20.0442 8.23313 20.0442 7.77178 19.8675 7.36687V7.36687ZM9.90825 12.319C7.67876 12.319 5.87132 10.3853 5.87132 8C5.87132 5.61472 7.67876 3.68098 9.90825 3.68098C12.1377 3.68098 13.9452 5.61472 13.9452 8C13.9452 10.3853 12.1377 12.319 9.90825 12.319Z" fill="#7B838A"/>
</svg>
