<svg width="21" height="18" viewBox="0 0 21 18" fill="none" xmlns="http://www.w3.org/2000/svg">
<path d="M10.5 4.125C12.915 4.125 14.875 6.085 14.875 8.5C14.875 9.06875 14.7613 9.6025 14.56 10.1013L17.115 12.6563C18.4363 11.5538 19.4775 10.1275 20.1163 8.5C18.6025 4.65875 14.8663 1.9375 10.4913 1.9375C9.26625 1.9375 8.09375 2.15625 7.00875 2.55L8.89875 4.44C9.3975 4.23875 9.93125 4.125 10.5 4.125ZM1.75 1.73625L3.745 3.73125L4.1475 4.13375C2.695 5.2625 1.5575 6.7675 0.875 8.5C2.38875 12.3413 6.125 15.0625 10.5 15.0625C11.8563 15.0625 13.1512 14.8 14.3325 14.3275L14.7 14.695L17.2638 17.25L18.375 16.1388L2.86125 0.625L1.75 1.73625ZM6.58875 6.575L7.945 7.93125C7.90125 8.115 7.875 8.3075 7.875 8.5C7.875 9.9525 9.0475 11.125 10.5 11.125C10.6925 11.125 10.885 11.0988 11.0688 11.055L12.425 12.4113C11.8388 12.7 11.1913 12.875 10.5 12.875C8.085 12.875 6.125 10.915 6.125 8.5C6.125 7.80875 6.3 7.16125 6.58875 6.575ZM10.36 5.8925L13.1163 8.64875L13.1338 8.50875C13.1338 7.05625 11.9613 5.88375 10.5088 5.88375L10.36 5.8925Z" fill="#7B838A"/>
</svg>
