<svg width="13" height="21" viewBox="0 0 13 21" fill="none" xmlns="http://www.w3.org/2000/svg">
<path d="M7.54169 20.9154H4.41668V17.7904H7.54169V20.9154ZM7.54169 15.7071H4.41668V15.6998C4.41668 13.981 4.41668 12.4967 5.11668 11.4571C5.66128 10.7669 6.33891 10.193 7.1094 9.76959C7.45732 9.54667 7.78544 9.33521 8.06148 9.11542C9.27126 8.17903 9.8152 6.61743 9.44899 5.13209C8.86952 3.74683 7.39509 2.96082 5.92199 3.25185C4.44889 3.54288 3.38415 4.83055 3.37501 6.33209H0.25C0.25 2.88031 3.04823 0.0820596 6.50002 0.0820596C8.90134 0.0748737 11.0974 1.43516 12.1605 3.58834C13.1153 5.78222 12.7379 8.32836 11.1875 10.1508C10.7162 10.6732 10.1871 11.1404 9.61045 11.5435C9.10585 11.8916 8.64551 12.2998 8.23961 12.7592C7.66595 13.6285 7.4187 14.6729 7.54169 15.7071Z" fill="#323232"/>
</svg>
