<svg width="18" height="18" viewBox="0 0 18 18" fill="none" xmlns="http://www.w3.org/2000/svg">
<path d="M5.34568 0.281994C4.40313 0.323551 3.75513 0.475973 3.19363 0.694317C2.59762 0.919565 2.06401 1.2661 1.62041 1.72012C1.16992 2.16371 0.819862 2.70084 0.598133 3.28995C0.379789 3.8547 0.227367 4.49931 0.18581 5.44186C0.140733 6.39145 0.13031 6.69291 0.13031 9.10133C0.13031 11.5098 0.140733 11.8112 0.18229 12.7573C0.223848 13.6998 0.376405 14.3478 0.594614 14.9092C0.819863 15.5053 1.1664 16.039 1.62042 16.4826C2.06401 16.933 2.60114 17.283 3.19025 17.5048C3.75513 17.7232 4.39961 17.8756 5.34216 17.9172C6.29175 17.9622 6.59321 17.9727 9.00163 17.9727C11.4101 17.9727 11.7115 17.9622 12.6576 17.9207C13.6001 17.8791 14.2481 17.7266 14.8096 17.5082C15.4056 17.283 15.9393 16.933 16.3829 16.4826C16.8334 16.039 17.1834 15.5018 17.4051 14.9127C17.6235 14.3478 17.7759 13.7034 17.8175 12.7607C17.8592 11.8147 17.8694 11.5131 17.8694 9.10472C17.8694 6.69629 17.8592 6.39483 17.8175 5.44876C17.7759 4.50621 17.6235 3.85822 17.4051 3.29686C16.9442 2.10469 16.0017 1.16214 14.8096 0.70122C14.2448 0.48301 13.6001 0.330453 12.6576 0.288896C11.7115 0.247338 11.4101 0.236915 9.00163 0.236915C6.59321 0.236915 6.29175 0.240436 5.34568 0.281994ZM12.5883 1.87944C13.4546 1.91762 13.9224 2.06313 14.2343 2.18442C15.0071 2.4825 15.6205 3.09584 15.9185 3.86864C16.0398 4.18052 16.1854 4.65173 16.2234 5.51469C16.2651 6.45033 16.2754 6.73095 16.2754 9.09781C16.2754 11.4647 16.2651 11.7488 16.2234 12.6811C16.1854 13.5474 16.0398 14.0152 15.9185 14.3271C15.7764 14.7117 15.5512 15.0618 15.2566 15.3459C14.969 15.6404 14.6224 15.8657 14.2378 16.0078C13.926 16.1291 13.4546 16.2746 12.5918 16.3127C11.6562 16.3544 11.3754 16.3646 9.00854 16.3646C6.64167 16.3646 6.35754 16.3544 5.42541 16.3127C4.55907 16.2746 4.09124 16.1291 3.77936 16.0078C3.39465 15.8657 3.04473 15.6404 2.76046 15.3424C2.46591 15.0548 2.24066 14.7083 2.09866 14.3236C1.97737 14.0117 1.83186 13.5404 1.79368 12.6776C1.75213 11.7419 1.7417 11.4612 1.7417 9.09443C1.7417 6.72404 1.75213 6.44343 1.79368 5.51117C1.83186 4.64483 1.97737 4.177 2.09866 3.86512C2.24066 3.48055 2.46591 3.13049 2.76046 2.84636C3.04812 2.5518 3.39465 2.32656 3.77936 2.18442C4.09124 2.06313 4.56245 1.91762 5.42541 1.87944C6.36106 1.83788 6.64167 1.82746 9.00854 1.82746C11.3754 1.82746 11.6526 1.83788 12.5883 1.87944Z" fill="url(#paint0_linear_14175_37513)"/>
<path d="M4.44379 9.10614C4.44379 11.6219 6.48483 13.6631 9.00074 13.6631C11.5166 13.6631 13.5577 11.6219 13.5577 9.10613C13.5577 6.59023 11.5166 4.54918 9.00074 4.54918C6.48483 4.54918 4.44379 6.59023 4.44379 9.10614ZM11.9567 9.10613C11.9567 10.7382 10.633 12.0621 9.00074 12.0621C7.3685 12.0621 6.04476 10.7382 6.04476 9.10614C6.04476 7.4739 7.3685 6.15015 9.00074 6.15015C10.633 6.15015 11.9567 7.4739 11.9567 9.10613Z" fill="url(#paint1_linear_14175_37513)"/>
<path d="M4.06372 3.00012C4.6512 3.00012 5.12756 3.47647 5.12756 4.06409C5.12756 4.65158 4.6512 5.12793 4.06372 5.12793C3.47609 5.12793 2.99988 4.65158 2.99988 4.06409C2.99988 3.47647 3.47609 3.00012 4.06372 3.00012Z" fill="url(#paint2_linear_14175_37513)"/>
<defs>
<linearGradient id="paint0_linear_14175_37513" x1="3.86749" y1="17.2568" x2="7.33113" y2="-2.0139" gradientUnits="userSpaceOnUse">
<stop stop-color="#6A58FB"/>
<stop offset="1" stop-color="#4599F4"/>
</linearGradient>
<linearGradient id="paint1_linear_14175_37513" x1="6.36385" y1="13.2952" x2="8.14404" y2="3.39267" gradientUnits="userSpaceOnUse">
<stop stop-color="#6A58FB"/>
<stop offset="1" stop-color="#4599F4"/>
</linearGradient>
<linearGradient id="paint2_linear_14175_37513" x1="3.44812" y1="5.04204" x2="3.86377" y2="2.73012" gradientUnits="userSpaceOnUse">
<stop stop-color="#6A58FB"/>
<stop offset="1" stop-color="#4599F4"/>
</linearGradient>
</defs>
</svg>