<svg width="21" height="16" viewBox="0 0 21 16" fill="none" xmlns="http://www.w3.org/2000/svg">
<path d="M2.16732 15.793H0.0839844C0.0839844 12.3412 2.88221 9.54297 6.334 9.54297C9.7858 9.54297 12.584 12.3412 12.584 15.793H10.5007C10.5007 13.4918 8.6352 11.6263 6.334 11.6263C4.03281 11.6263 2.16732 13.4918 2.16732 15.793ZM17.7924 12.668H15.709V9.54297H12.584V7.45964H15.709V4.33464H17.7924V7.45964H20.9174V9.54297H17.7924V12.668ZM6.334 8.5013C4.03281 8.5013 2.16732 6.63582 2.16732 4.33464C2.16732 2.03345 4.03281 0.167969 6.334 0.167969C8.6352 0.167969 10.5007 2.03345 10.5007 4.33464C10.4978 6.63463 8.63401 8.49843 6.334 8.5013ZM6.334 2.2513C5.19587 2.25245 4.2693 3.16677 4.25299 4.30478C4.23668 5.44279 5.13667 6.38328 6.27431 6.41705C7.41194 6.45082 8.36613 5.56536 8.41735 4.42839V4.84505V4.33464C8.41735 3.18404 7.4846 2.2513 6.334 2.2513Z" fill="#333333"/>
</svg>
