<svg width="25" height="25" viewBox="0 0 25 25" fill="none" xmlns="http://www.w3.org/2000/svg">
<g clip-path="url(#clip0_12314_61678)">
<path d="M12.4997 2.08203C8.46842 2.08203 5.20801 5.34245 5.20801 9.3737C5.20801 14.8424 12.4997 22.9154 12.4997 22.9154C12.4997 22.9154 19.7913 14.8424 19.7913 9.3737C19.7913 5.34245 16.5309 2.08203 12.4997 2.08203ZM7.29134 9.3737C7.29134 6.4987 9.62467 4.16536 12.4997 4.16536C15.3747 4.16536 17.708 6.4987 17.708 9.3737C17.708 12.3737 14.708 16.8633 12.4997 19.6654C10.333 16.8841 7.29134 12.3424 7.29134 9.3737Z" fill="#7B838A"/>
<path d="M12.4997 11.9779C13.9379 11.9779 15.1038 10.8119 15.1038 9.3737C15.1038 7.93546 13.9379 6.76953 12.4997 6.76953C11.0614 6.76953 9.89551 7.93546 9.89551 9.3737C9.89551 10.8119 11.0614 11.9779 12.4997 11.9779Z" fill="#7B838A"/>
</g>
<defs>
<clipPath id="clip0_12314_61678">
<rect width="25" height="25" fill="white"/>
</clipPath>
</defs>
</svg>
