<svg width="17" height="22" viewBox="0 0 17 22" fill="none" xmlns="http://www.w3.org/2000/svg">
<path d="M14.7494 7.33464H13.7077V5.2513C13.7077 2.3763 11.3744 0.0429688 8.49938 0.0429688C5.62437 0.0429688 3.29103 2.3763 3.29103 5.2513V7.33464H2.24936C1.10352 7.33464 0.166016 8.27213 0.166016 9.41797V19.8346C0.166016 20.9805 1.10352 21.918 2.24936 21.918H14.7494C15.8952 21.918 16.8327 20.9805 16.8327 19.8346V9.41797C16.8327 8.27213 15.8952 7.33464 14.7494 7.33464ZM5.37437 5.2513C5.37437 3.52214 6.7702 2.1263 8.49938 2.1263C10.2285 2.1263 11.6244 3.52214 11.6244 5.2513V7.33464H5.37437V5.2513ZM14.7494 19.8346H2.24936V9.41797H14.7494V19.8346ZM8.49938 16.7096C9.64521 16.7096 10.5827 15.7721 10.5827 14.6263C10.5827 13.4805 9.64521 12.543 8.49938 12.543C7.35354 12.543 6.41604 13.4805 6.41604 14.6263C6.41604 15.7721 7.35354 16.7096 8.49938 16.7096Z" fill="#333333"/>
</svg>
