<svg width="193" height="66" viewBox="0 0 193 66" fill="none" xmlns="http://www.w3.org/2000/svg">
<path d="M48.2818 20.9377H47.9141V18.8465H48.2818V20.9377ZM48.9338 19.1453H47.2678V18.8465H48.9338V19.1453ZM49.8364 18.8465L50.431 20.4408L51.0256 18.8465H51.3559L50.5617 20.9377H50.3003L49.5075 18.8465H49.8364ZM49.6698 18.8465L49.7243 20.267V20.9377H49.3552V18.8465H49.6698ZM51.5082 18.8465V20.9377H51.1376V20.267L51.1936 18.8465H51.5082Z" fill="white"/>
<path d="M22.9885 41.5541L16.1007 65L27.3479 40.6645L13.6594 29.8742H31.1551L36.2702 14.1479L41.9664 29.8742L71 25.7417H45.018L36.2702 0L27.3479 25.7417H0L22.9885 41.5541Z" fill="white"/>
<path d="M43.2422 46.1719C43.2422 45.918 43.1868 45.6934 43.0762 45.498C42.972 45.3027 42.7507 45.1107 42.4121 44.9219C42.0801 44.7266 41.5723 44.515 40.8887 44.2871C40.2767 44.0788 39.681 43.8411 39.1016 43.5742C38.5221 43.3073 38.0013 42.9948 37.5391 42.6367C37.0768 42.2721 36.709 41.8457 36.4355 41.3574C36.1621 40.8626 36.0254 40.2865 36.0254 39.6289C36.0254 38.7956 36.2663 38.0794 36.748 37.4805C37.2298 36.875 37.8874 36.4095 38.7207 36.084C39.554 35.752 40.5013 35.5859 41.5625 35.5859C42.6107 35.5859 43.5352 35.765 44.3359 36.123C45.1432 36.4746 45.7747 36.9824 46.2305 37.6465C46.6927 38.3105 46.9238 39.1048 46.9238 40.0293H43.2715C43.2715 39.7233 43.2064 39.4531 43.0762 39.2188C42.9525 38.9844 42.7572 38.8021 42.4902 38.6719C42.2298 38.5417 41.8945 38.4766 41.4844 38.4766C41.0872 38.4766 40.752 38.5319 40.4785 38.6426C40.2116 38.7533 40.0098 38.8997 39.873 39.082C39.7428 39.2578 39.6777 39.4564 39.6777 39.6777C39.6777 39.9316 39.7819 40.153 39.9902 40.3418C40.1986 40.5306 40.4883 40.7064 40.8594 40.8691C41.2305 41.0319 41.6602 41.1947 42.1484 41.3574C43.1641 41.6829 44.0234 42.0638 44.7266 42.5C45.4362 42.9297 45.9766 43.444 46.3477 44.043C46.7188 44.6354 46.9043 45.3385 46.9043 46.1523C46.9043 47.0182 46.6862 47.7539 46.25 48.3594C45.8203 48.9583 45.2083 49.4141 44.4141 49.7266C43.6198 50.0391 42.6855 50.1953 41.6113 50.1953C40.8691 50.1953 40.14 50.1009 39.4238 49.9121C38.7142 49.7233 38.0697 49.4303 37.4902 49.0332C36.9173 48.6361 36.4583 48.1283 36.1133 47.5098C35.7747 46.8848 35.6055 46.1393 35.6055 45.2734H39.2773C39.2773 45.6641 39.3229 45.9896 39.4141 46.25C39.5117 46.5104 39.6582 46.722 39.8535 46.8848C40.0488 47.041 40.293 47.1549 40.5859 47.2266C40.8789 47.2917 41.2207 47.3242 41.6113 47.3242C42.015 47.3242 42.334 47.2689 42.5684 47.1582C42.8092 47.0475 42.9818 46.9043 43.0859 46.7285C43.1901 46.5527 43.2422 46.3672 43.2422 46.1719ZM56.1129 50H52.4508V35.7812H56.1129V50ZM60.3121 38.7402H48.3395V35.7812H60.3121V38.7402ZM63.6125 50H59.677L64.8918 35.7812H67.3723L66.9426 39.209L63.6125 50ZM66.298 39.209L65.8195 35.7812H68.3293L73.5734 50H69.6379L66.298 39.209ZM69.5988 47.6172H62.3039V44.6582H69.5988V47.6172ZM80.6141 35.7812C81.7273 35.7812 82.6909 35.9473 83.5047 36.2793C84.3185 36.6048 84.9467 37.0866 85.3895 37.7246C85.8322 38.3626 86.0535 39.1536 86.0535 40.0977C86.0535 40.944 85.9266 41.6439 85.6727 42.1973C85.4253 42.7441 85.077 43.1934 84.6277 43.5449C84.185 43.89 83.6642 44.1862 83.0652 44.4336L81.8641 45.166H77.2254L77.2059 42.207H80.575C80.9786 42.207 81.3139 42.1419 81.5809 42.0117C81.8543 41.8815 82.0561 41.6895 82.1863 41.4355C82.323 41.1751 82.3914 40.8561 82.3914 40.4785C82.3914 39.9316 82.2417 39.5052 81.9422 39.1992C81.6427 38.8932 81.2 38.7402 80.6141 38.7402H78.5926V50H74.9305V35.7812H80.6141ZM79.5105 43.7402L83.3973 43.7109L86.5223 49.8438V50H82.5965L79.5105 43.7402ZM90.6918 45.3711V42.4121H94.1586C94.6013 42.4121 94.9594 42.3405 95.2328 42.1973C95.5062 42.054 95.7081 41.8587 95.8383 41.6113C95.9685 41.3574 96.0336 41.0677 96.0336 40.7422C96.0336 40.3906 95.9685 40.0618 95.8383 39.7559C95.7081 39.4499 95.5062 39.2057 95.2328 39.0234C94.9594 38.8346 94.6013 38.7402 94.1586 38.7402H92.059V50H88.3871V35.7812H94.1586C95.3109 35.7812 96.3038 35.9961 97.1371 36.4258C97.977 36.8555 98.6215 37.4414 99.0707 38.1836C99.5264 38.9258 99.7543 39.7721 99.7543 40.7227C99.7543 41.6471 99.5264 42.4577 99.0707 43.1543C98.6215 43.8509 97.977 44.3945 97.1371 44.7852C96.3038 45.1758 95.3109 45.3711 94.1586 45.3711H90.6918ZM107.586 35.7812C108.699 35.7812 109.663 35.9473 110.477 36.2793C111.29 36.6048 111.919 37.0866 112.361 37.7246C112.804 38.3626 113.025 39.1536 113.025 40.0977C113.025 40.944 112.898 41.6439 112.645 42.1973C112.397 42.7441 112.049 43.1934 111.6 43.5449C111.157 43.89 110.636 44.1862 110.037 44.4336L108.836 45.166H104.197L104.178 42.207H107.547C107.951 42.207 108.286 42.1419 108.553 42.0117C108.826 41.8815 109.028 41.6895 109.158 41.4355C109.295 41.1751 109.363 40.8561 109.363 40.4785C109.363 39.9316 109.214 39.5052 108.914 39.1992C108.615 38.8932 108.172 38.7402 107.586 38.7402H105.564V50H101.902V35.7812H107.586ZM106.482 43.7402L110.369 43.7109L113.494 49.8438V50H109.568L106.482 43.7402ZM127.556 43.1055C127.556 44.5768 127.286 45.8431 126.746 46.9043C126.212 47.959 125.473 48.7728 124.529 49.3457C123.585 49.9121 122.504 50.1953 121.287 50.1953C120.056 50.1953 118.966 49.9121 118.015 49.3457C117.065 48.7728 116.319 47.959 115.779 46.9043C115.245 45.8431 114.978 44.5768 114.978 43.1055V42.6855C114.978 41.2142 115.245 39.9512 115.779 38.8965C116.313 37.8353 117.052 37.0182 117.996 36.4453C118.946 35.8724 120.037 35.5859 121.267 35.5859C122.485 35.5859 123.565 35.8724 124.509 36.4453C125.46 37.0182 126.205 37.8353 126.746 38.8965C127.286 39.9512 127.556 41.2142 127.556 42.6855V43.1055ZM123.836 42.666C123.836 41.7676 123.735 41.0156 123.533 40.4102C123.338 39.8047 123.048 39.349 122.664 39.043C122.28 38.737 121.814 38.584 121.267 38.584C120.694 38.584 120.219 38.737 119.841 39.043C119.464 39.349 119.181 39.8047 118.992 40.4102C118.803 41.0156 118.709 41.7676 118.709 42.666V43.1055C118.709 43.9844 118.803 44.7298 118.992 45.3418C119.187 45.9538 119.474 46.4193 119.851 46.7383C120.235 47.0508 120.714 47.207 121.287 47.207C121.834 47.207 122.296 47.0508 122.673 46.7383C123.058 46.4193 123.347 45.9538 123.543 45.3418C123.738 44.7298 123.836 43.9844 123.836 43.1055V42.666ZM136.843 46.1719C136.843 45.918 136.788 45.6934 136.677 45.498C136.573 45.3027 136.351 45.1107 136.013 44.9219C135.681 44.7266 135.173 44.515 134.489 44.2871C133.877 44.0788 133.282 43.8411 132.702 43.5742C132.123 43.3073 131.602 42.9948 131.14 42.6367C130.678 42.2721 130.31 41.8457 130.036 41.3574C129.763 40.8626 129.626 40.2865 129.626 39.6289C129.626 38.7956 129.867 38.0794 130.349 37.4805C130.831 36.875 131.488 36.4095 132.321 36.084C133.155 35.752 134.102 35.5859 135.163 35.5859C136.211 35.5859 137.136 35.765 137.937 36.123C138.744 36.4746 139.376 36.9824 139.831 37.6465C140.293 38.3105 140.525 39.1048 140.525 40.0293H136.872C136.872 39.7233 136.807 39.4531 136.677 39.2188C136.553 38.9844 136.358 38.8021 136.091 38.6719C135.831 38.5417 135.495 38.4766 135.085 38.4766C134.688 38.4766 134.353 38.5319 134.079 38.6426C133.812 38.7533 133.611 38.8997 133.474 39.082C133.344 39.2578 133.279 39.4564 133.279 39.6777C133.279 39.9316 133.383 40.153 133.591 40.3418C133.799 40.5306 134.089 40.7064 134.46 40.8691C134.831 41.0319 135.261 41.1947 135.749 41.3574C136.765 41.6829 137.624 42.0638 138.327 42.5C139.037 42.9297 139.577 43.444 139.948 44.043C140.32 44.6354 140.505 45.3385 140.505 46.1523C140.505 47.0182 140.287 47.7539 139.851 48.3594C139.421 48.9583 138.809 49.4141 138.015 49.7266C137.221 50.0391 136.286 50.1953 135.212 50.1953C134.47 50.1953 133.741 50.1009 133.025 49.9121C132.315 49.7233 131.67 49.4303 131.091 49.0332C130.518 48.6361 130.059 48.1283 129.714 47.5098C129.376 46.8848 129.206 46.1393 129.206 45.2734H132.878C132.878 45.6641 132.924 45.9896 133.015 46.25C133.113 46.5104 133.259 46.722 133.454 46.8848C133.65 47.041 133.894 47.1549 134.187 47.2266C134.48 47.2917 134.821 47.3242 135.212 47.3242C135.616 47.3242 135.935 47.2689 136.169 47.1582C136.41 47.0475 136.583 46.9043 136.687 46.7285C136.791 46.5527 136.843 46.3672 136.843 46.1719ZM144.909 45.3711V42.4121H148.376C148.818 42.4121 149.177 42.3405 149.45 42.1973C149.723 42.054 149.925 41.8587 150.055 41.6113C150.186 41.3574 150.251 41.0677 150.251 40.7422C150.251 40.3906 150.186 40.0618 150.055 39.7559C149.925 39.4499 149.723 39.2057 149.45 39.0234C149.177 38.8346 148.818 38.7402 148.376 38.7402H146.276V50H142.604V35.7812H148.376C149.528 35.7812 150.521 35.9961 151.354 36.4258C152.194 36.8555 152.839 37.4414 153.288 38.1836C153.744 38.9258 153.971 39.7721 153.971 40.7227C153.971 41.6471 153.744 42.4577 153.288 43.1543C152.839 43.8509 152.194 44.3945 151.354 44.7852C150.521 45.1758 149.528 45.3711 148.376 45.3711H144.909ZM165.993 50H158.483V47.0508H165.993V50ZM159.782 50H156.11V35.7812H159.782V50ZM165.026 44.1309H158.483V41.2891H165.026V44.1309ZM166.022 38.7402H158.483V35.7812H166.022V38.7402ZM179.342 45.1074C179.303 46.11 179.036 46.9954 178.541 47.7637C178.046 48.5254 177.359 49.1211 176.48 49.5508C175.608 49.9805 174.579 50.1953 173.395 50.1953C172.112 50.1953 171.015 49.9154 170.104 49.3555C169.192 48.7891 168.495 47.9818 168.014 46.9336C167.538 45.8854 167.301 44.6354 167.301 43.1836V42.6074C167.301 41.1491 167.551 39.8958 168.053 38.8477C168.554 37.7995 169.254 36.9922 170.152 36.4258C171.057 35.8594 172.118 35.5762 173.336 35.5762C174.599 35.5762 175.66 35.804 176.52 36.2598C177.385 36.7155 178.053 37.3372 178.521 38.125C178.997 38.9128 179.277 39.8014 179.361 40.791H175.709C175.696 40.0488 175.517 39.4954 175.172 39.1309C174.827 38.7663 174.215 38.584 173.336 38.584C172.809 38.584 172.372 38.7109 172.027 38.9648C171.689 39.2122 171.435 39.6289 171.266 40.2148C171.103 40.7943 171.021 41.5853 171.021 42.5879V43.1836C171.021 44.1927 171.093 44.9902 171.236 45.5762C171.386 46.1556 171.633 46.569 171.979 46.8164C172.33 47.0638 172.802 47.1875 173.395 47.1875C173.883 47.1875 174.296 47.1159 174.635 46.9727C174.973 46.8294 175.23 46.6048 175.406 46.2988C175.589 45.9928 175.683 45.5957 175.689 45.1074H179.342ZM188.043 50H184.38V35.7812H188.043V50ZM192.242 38.7402H180.269V35.7812H192.242V38.7402Z" fill="white"/>
<path d="M37.9336 63H36.9336V57.3125H37.9336V63ZM39.707 58.125H35.1758V57.3125H39.707V58.125ZM40.9273 63H39.8688L42.0094 57.3125H42.6813L42.6148 58.1211L40.9273 63ZM42.3219 58.1211L42.2477 57.3125H42.9234L45.0719 63H44.0133L42.3219 58.1211ZM43.9469 61.6992H40.8492V60.8867H43.9469V61.6992ZM47.1125 63H46.1047V57.3125H47.1125V63ZM48.2297 60.0664L46.9094 61.4648L46.7336 60.457L47.6633 59.2852L49.2961 57.3125H50.5266L48.2297 60.0664ZM47.593 60.3242L48.2883 59.6367L50.632 63H49.4328L47.593 60.3242ZM52.6297 63H51.6258V57.3125H52.6297V63ZM58.7602 63H57.7484L55.2406 58.9922V63H54.2328V57.3125H55.2406L57.7563 61.3281V57.3125H58.7602V63ZM64.6953 62.2695C64.612 62.3737 64.4857 62.4896 64.3164 62.6172C64.1471 62.7422 63.9206 62.8503 63.6367 62.9414C63.3555 63.0326 63.0052 63.0781 62.5859 63.0781C62.1068 63.0781 61.6836 62.9714 61.3164 62.7578C60.9518 62.5443 60.6667 62.2331 60.4609 61.8242C60.2552 61.4154 60.1523 60.9232 60.1523 60.3477V59.9648C60.1523 59.3867 60.2474 58.8945 60.4375 58.4883C60.6276 58.0794 60.8971 57.7682 61.2461 57.5547C61.5977 57.3411 62.0156 57.2344 62.5 57.2344C62.9688 57.2344 63.3568 57.3125 63.6641 57.4688C63.974 57.625 64.2122 57.8411 64.3789 58.1172C64.5456 58.3906 64.6497 58.7057 64.6914 59.0625H63.7031C63.6745 58.8646 63.6159 58.6901 63.5273 58.5391C63.4388 58.3854 63.3125 58.2643 63.1484 58.1758C62.9844 58.0872 62.7747 58.043 62.5195 58.043C62.2201 58.043 61.9701 58.1185 61.7695 58.2695C61.569 58.418 61.4193 58.6354 61.3203 58.9219C61.2214 59.2057 61.1719 59.5508 61.1719 59.957V60.3477C61.1719 60.7591 61.2292 61.1081 61.3438 61.3945C61.4609 61.6784 61.6276 61.8958 61.8438 62.0469C62.0599 62.1953 62.3203 62.2695 62.625 62.2695C62.8438 62.2695 63.0234 62.2513 63.1641 62.2148C63.3047 62.1784 63.4154 62.1341 63.4961 62.082C63.5794 62.0299 63.6432 61.9805 63.6875 61.9336V60.832H62.5234V60.0742H64.6953V62.2695ZM69.1086 63H68.05L70.1906 57.3125H70.8625L70.7961 58.1211L69.1086 63ZM70.5031 58.1211L70.4289 57.3125H71.1047L73.2531 63H72.1945L70.5031 58.1211ZM72.1281 61.6992H69.0305V60.8867H72.1281V61.6992ZM76.157 63H75.157V57.3125H76.157V63ZM77.9305 58.125H73.3992V57.3125H77.9305V58.125ZM82.8266 60.4844H79.8344V59.6719H82.8266V60.4844ZM80.0844 63H79.0766V57.3125H80.0844V63ZM83.6039 63H82.6V57.3125H83.6039V63ZM88.7344 63H85.8828V62.1914H88.7344V63ZM86.1641 63H85.1562V57.3125H86.1641V63ZM93.6148 63H90.6109V62.1914H93.6148V63ZM90.8922 63H89.8844V57.3125H90.8922V63ZM93.2203 60.4688H90.6109V59.6719H93.2203V60.4688ZM93.5953 58.125H90.6109V57.3125H93.5953V58.125ZM97.2492 63H96.2492V57.3125H97.2492V63ZM99.0227 58.125H94.4914V57.3125H99.0227V58.125ZM103.899 63H100.895V62.1914H103.899V63ZM101.177 63H100.169V57.3125H101.177V63ZM103.505 60.4688H100.895V59.6719H103.505V60.4688ZM103.88 58.125H100.895V57.3125H103.88V58.125ZM108.073 61.5312C108.073 61.3776 108.04 61.2474 107.975 61.1406C107.912 61.0312 107.794 60.931 107.62 60.8398C107.445 60.7461 107.194 60.6484 106.866 60.5469C106.597 60.4661 106.349 60.3737 106.12 60.2695C105.893 60.1654 105.695 60.0456 105.526 59.9102C105.357 59.7721 105.224 59.6133 105.127 59.4336C105.034 59.2513 104.987 59.0417 104.987 58.8047C104.987 58.4948 105.073 58.2227 105.245 57.9883C105.416 57.7513 105.655 57.5664 105.959 57.4336C106.264 57.3008 106.617 57.2344 107.018 57.2344C107.445 57.2344 107.812 57.3125 108.12 57.4688C108.427 57.6224 108.662 57.8307 108.827 58.0938C108.993 58.3568 109.077 58.6497 109.077 58.9727H108.069C108.069 58.793 108.03 58.6328 107.952 58.4922C107.876 58.349 107.76 58.2383 107.604 58.1602C107.448 58.0794 107.248 58.0391 107.006 58.0391C106.78 58.0391 106.591 58.0729 106.44 58.1406C106.289 58.2083 106.177 58.2995 106.104 58.4141C106.031 58.5286 105.995 58.6589 105.995 58.8047C105.995 58.9427 106.039 59.0651 106.127 59.1719C106.216 59.2786 106.35 59.3763 106.53 59.4648C106.709 59.5508 106.933 59.6341 107.202 59.7148C107.623 59.8372 107.974 59.9805 108.252 60.1445C108.531 60.3086 108.738 60.5026 108.873 60.7266C109.011 60.9505 109.08 61.2161 109.08 61.5234C109.08 61.8438 108.997 62.1211 108.83 62.3555C108.664 62.5872 108.428 62.7656 108.123 62.8906C107.819 63.0156 107.461 63.0781 107.049 63.0781C106.776 63.0781 106.506 63.0417 106.241 62.9688C105.975 62.8932 105.734 62.7812 105.518 62.6328C105.304 62.4818 105.133 62.293 105.002 62.0664C104.875 61.8398 104.811 61.5729 104.811 61.2656H105.819C105.819 61.4479 105.85 61.6029 105.912 61.7305C105.975 61.8581 106.062 61.9635 106.174 62.0469C106.286 62.1276 106.416 62.1862 106.565 62.2227C106.716 62.2591 106.877 62.2773 107.049 62.2773C107.276 62.2773 107.465 62.2461 107.616 62.1836C107.767 62.1185 107.88 62.0299 107.955 61.918C108.034 61.806 108.073 61.6771 108.073 61.5312ZM114.92 63H113.92V57.3125H114.92V63ZM116.693 58.125H112.162V57.3125H116.693V58.125ZM122.245 60.3047C122.245 60.8802 122.146 61.375 121.948 61.7891C121.751 62.2031 121.474 62.5221 121.12 62.7461C120.769 62.9674 120.356 63.0781 119.882 63.0781C119.418 63.0781 119.007 62.9674 118.648 62.7461C118.291 62.5221 118.011 62.2031 117.808 61.7891C117.607 61.375 117.507 60.8802 117.507 60.3047V60.0117C117.507 59.4362 117.607 58.9414 117.808 58.5273C118.008 58.1107 118.287 57.7917 118.644 57.5703C119.001 57.3464 119.411 57.2344 119.874 57.2344C120.348 57.2344 120.762 57.3464 121.116 57.5703C121.471 57.7917 121.747 58.1107 121.945 58.5273C122.145 58.9414 122.245 59.4362 122.245 60.0117V60.3047ZM121.234 60.0039C121.234 59.5846 121.18 59.2318 121.073 58.9453C120.967 58.6562 120.812 58.4388 120.609 58.293C120.405 58.1445 120.161 58.0703 119.874 58.0703C119.593 58.0703 119.351 58.1445 119.148 58.293C118.947 58.4388 118.792 58.6562 118.683 58.9453C118.576 59.2318 118.523 59.5846 118.523 60.0039V60.3047C118.523 60.724 118.577 61.0781 118.687 61.3672C118.796 61.6562 118.952 61.875 119.155 62.0234C119.359 62.1719 119.601 62.2461 119.882 62.2461C120.171 62.2461 120.416 62.1719 120.616 62.0234C120.82 61.875 120.973 61.6562 121.077 61.3672C121.182 61.0781 121.234 60.724 121.234 60.3047V60.0039ZM128.19 63H127.19V57.3125H128.19V63ZM129.963 58.125H125.432V57.3125H129.963V58.125ZM134.859 60.4844H131.867V59.6719H134.859V60.4844ZM132.117 63H131.109V57.3125H132.117V63ZM135.637 63H134.633V57.3125H135.637V63ZM140.92 63H137.916V62.1914H140.92V63ZM138.197 63H137.189V57.3125H138.197V63ZM140.525 60.4688H137.916V59.6719H140.525V60.4688ZM140.9 58.125H137.916V57.3125H140.9V58.125ZM149.032 63H148.02L145.512 58.9922V63H144.505V57.3125H145.512L148.028 61.3281V57.3125H149.032V63ZM154.315 63H151.311V62.1914H154.315V63ZM151.592 63H150.584V57.3125H151.592V63ZM153.92 60.4688H151.311V59.6719H153.92V60.4688ZM154.295 58.125H151.311V57.3125H154.295V58.125ZM157.473 59.3594L158.656 57.3125H159.82L158.109 60.1328L159.859 63H158.688L157.473 60.9141L156.254 63H155.086L156.84 60.1328L155.125 57.3125H156.289L157.473 59.3594ZM163.334 63H162.334V57.3125H163.334V63ZM165.107 58.125H160.576V57.3125H165.107V58.125ZM172.044 63H169.192V62.1914H172.044V63ZM169.473 63H168.466V57.3125H169.473V63ZM176.924 63H173.92V62.1914H176.924V63ZM174.202 63H173.194V57.3125H174.202V63ZM176.53 60.4688H173.92V59.6719H176.53V60.4688ZM176.905 58.125H173.92V57.3125H176.905V58.125ZM181.625 57.3125H182.738L180.707 63H179.953L180.145 61.9258L181.625 57.3125ZM180.258 61.9258L180.461 63H179.707L177.68 57.3125H178.789L180.258 61.9258ZM187.498 63H184.494V62.1914H187.498V63ZM184.775 63H183.767V57.3125H184.775V63ZM187.103 60.4688H184.494V59.6719H187.103V60.4688ZM187.478 58.125H184.494V57.3125H187.478V58.125ZM192.269 63H189.417V62.1914H192.269V63ZM189.698 63H188.691V57.3125H189.698V63Z" fill="white"/>
</svg>
