<svg width="17" height="21" viewBox="0 0 17 21" fill="none" xmlns="http://www.w3.org/2000/svg">
<path d="M8.50004 20.916C9.64588 20.916 10.5834 19.9785 10.5834 18.8327H6.4167C6.4167 19.9785 7.3542 20.916 8.50004 20.916ZM14.7501 14.666V9.45768C14.7501 6.25977 13.0521 3.58268 10.0625 2.87435V2.16602C10.0625 1.30143 9.36463 0.603516 8.50004 0.603516C7.63545 0.603516 6.93753 1.30143 6.93753 2.16602V2.87435C3.95836 3.58268 2.25002 6.24935 2.25002 9.45768V14.666L0.166679 16.7493V17.791H16.8334V16.7493L14.7501 14.666ZM12.6667 15.7077H4.33336V9.45768C4.33336 6.87435 5.90628 4.77018 8.50004 4.77018C11.0938 4.77018 12.6667 6.87435 12.6667 9.45768V15.7077Z" fill="#333333"/>
</svg>
