<svg width="17" height="21" viewBox="0 0 17 21" fill="none" xmlns="http://www.w3.org/2000/svg">
<path d="M8.50004 20.917C9.64588 20.917 10.5834 19.9795 10.5834 18.8337H6.4167C6.4167 19.9795 7.3542 20.917 8.50004 20.917ZM14.7501 14.667V9.45866C14.7501 6.26074 13.0521 3.58366 10.0625 2.87533V2.16699C10.0625 1.30241 9.36463 0.604492 8.50004 0.604492C7.63545 0.604492 6.93753 1.30241 6.93753 2.16699V2.87533C3.95836 3.58366 2.25002 6.25033 2.25002 9.45866V14.667L0.166679 16.7503V17.792H16.8334V16.7503L14.7501 14.667ZM12.6667 15.7087H4.33336V9.45866C4.33336 6.87533 5.90628 4.77116 8.50004 4.77116C11.0938 4.77116 12.6667 6.87533 12.6667 9.45866V15.7087Z" fill="#333333"/>
</svg>
