<svg width="24" height="24" viewBox="0 0 24 24" fill="none" xmlns="http://www.w3.org/2000/svg">
<rect x="1.5" y="1.5" width="21" height="21" rx="10.5" fill="black"/>
<path d="M18.0005 16.1998C18.0005 16.3589 17.9373 16.5115 17.8248 16.6241C17.7122 16.7366 17.5596 16.7998 17.4005 16.7998L6.60049 16.7998C6.44136 16.7998 6.28874 16.7366 6.17622 16.6241C6.0637 16.5115 6.00049 16.3589 6.00049 16.1998C6.00049 16.0407 6.0637 15.8881 6.17622 15.7755C6.28875 15.663 6.44136 15.5998 6.60049 15.5998L17.4005 15.5998C17.5596 15.5998 17.7122 15.663 17.8248 15.7755C17.9373 15.8881 18.0005 16.0407 18.0005 16.1998ZM6.60049 13.1998L17.4005 13.1998C17.5596 13.1998 17.7122 13.1366 17.8248 13.0241C17.9373 12.9115 18.0005 12.7589 18.0005 12.5998C18.0005 12.4407 17.9373 12.2881 17.8248 12.1755C17.7122 12.063 17.5596 11.9998 17.4005 11.9998L6.60049 11.9998C6.44136 11.9998 6.28875 12.063 6.17622 12.1755C6.0637 12.2881 6.00049 12.4407 6.00049 12.5998C6.00049 12.7589 6.0637 12.9115 6.17622 13.0241C6.28875 13.1366 6.44136 13.1998 6.60049 13.1998ZM11.4005 9.5998L17.4005 9.5998C17.5596 9.5998 17.7122 9.53659 17.8248 9.42407C17.9373 9.31155 18.0005 9.15893 18.0005 8.9998C18.0005 8.84067 17.9373 8.68806 17.8248 8.57554C17.7122 8.46302 17.5596 8.3998 17.4005 8.3998L11.4005 8.3998C11.2414 8.3998 11.0887 8.46302 10.9762 8.57554C10.8637 8.68806 10.8005 8.84067 10.8005 8.9998C10.8005 9.15893 10.8637 9.31154 10.9762 9.42407C11.0887 9.53659 11.2414 9.5998 11.4005 9.5998ZM6.60049 9.5998L7.20049 9.5998L7.20049 10.1998C7.20049 10.3589 7.2637 10.5115 7.37622 10.6241C7.48875 10.7366 7.64136 10.7998 7.80049 10.7998C7.95962 10.7998 8.11223 10.7366 8.22475 10.6241C8.33728 10.5115 8.40049 10.3589 8.40049 10.1998L8.40049 9.5998L9.00049 9.5998C9.15962 9.5998 9.31223 9.53659 9.42475 9.42407C9.53728 9.31154 9.60049 9.15893 9.60049 8.9998C9.60049 8.84067 9.53728 8.68806 9.42475 8.57554C9.31223 8.46302 9.15962 8.3998 9.00049 8.3998L8.40049 8.3998L8.40049 7.7998C8.40049 7.64067 8.33728 7.48806 8.22475 7.37554C8.11223 7.26301 7.95962 7.1998 7.80049 7.1998C7.64136 7.1998 7.48875 7.26301 7.37622 7.37554C7.2637 7.48806 7.20049 7.64067 7.20049 7.7998L7.20049 8.3998L6.60049 8.3998C6.44136 8.3998 6.28875 8.46302 6.17622 8.57554C6.0637 8.68806 6.00049 8.84067 6.00049 8.9998C6.00049 9.15893 6.0637 9.31154 6.17622 9.42407C6.28875 9.53659 6.44136 9.5998 6.60049 9.5998Z" fill="white"/>
</svg>
