<svg width="22" height="22" viewBox="0 0 22 22" fill="none" xmlns="http://www.w3.org/2000/svg">
<g clip-path="url(#clip0_8803_61712)">
<path d="M14.9816 5.45745L2.28727 8.78496C1.75247 8.92513 1.34949 9.34834 1.23555 9.88932C1.12165 10.4304 1.31977 10.9801 1.75262 11.3241L5.17113 14.0404L9.37737 10.8449C9.57093 10.6979 9.84708 10.7356 9.99414 10.9291C10.1412 11.1227 10.1035 11.3988 9.90991 11.5459L5.70367 14.7414L7.40397 18.763C7.61927 19.2722 8.09577 19.6105 8.64754 19.6458C9.20038 19.6812 9.7155 19.4055 9.99347 18.9287L16.6027 7.59132C16.9037 7.07514 16.866 6.45893 16.5046 5.98316C16.1432 5.50739 15.5596 5.3059 14.9816 5.45745Z" fill="white"/>
</g>
<defs>
<clipPath id="clip0_8803_61712">
<rect width="15.0233" height="15.0233" fill="white" transform="translate(0 9.08984) rotate(-37.2238)"/>
</clipPath>
</defs>
</svg>
