<svg width="31" height="31" viewBox="0 0 31 31" fill="none" xmlns="http://www.w3.org/2000/svg">
<path d="M23.9844 26.7495V6.74951C23.9844 5.3688 22.8651 4.24951 21.4844 4.24951H8.98438C7.60366 4.24951 6.48438 5.3688 6.48438 6.74951V26.7495M23.9844 26.7495L26.4844 26.7495M23.9844 26.7495H17.7344M6.48438 26.7495L3.98438 26.7495M6.48438 26.7495H12.7344M11.4844 9.24948H12.7344M11.4844 14.2495H12.7344M17.7344 9.24948H18.9844M17.7344 14.2495H18.9844M12.7344 26.7495V20.4995C12.7344 19.8091 13.294 19.2495 13.9844 19.2495H16.4844C17.1747 19.2495 17.7344 19.8091 17.7344 20.4995V26.7495M12.7344 26.7495H17.7344" stroke="url(#paint0_linear_4335_39490)" stroke-width="3" stroke-linecap="round" stroke-linejoin="round"/>
<defs>
<linearGradient id="paint0_linear_4335_39490" x1="4.89258" y1="8.98968" x2="29.3395" y2="13.3845" gradientUnits="userSpaceOnUse">
<stop stop-color="#6A58FB"/>
<stop offset="1" stop-color="#4599F4"/>
</linearGradient>
</defs>
</svg>
