<svg width="30" height="31" viewBox="0 0 30 31" fill="none" xmlns="http://www.w3.org/2000/svg">
<path fill-rule="evenodd" clip-rule="evenodd" d="M11.9828 4.06921C10.2898 4.42084 9.18436 6.05168 9.53225 7.68436C9.78607 8.87586 10.7786 9.84659 11.9846 10.083L12.2786 10.1406L11.7709 10.1675C10.4514 10.2375 9.34701 10.7125 8.42449 11.6068C7.70647 12.303 7.24273 13.1278 7.0272 14.0923C6.91841 14.5791 6.91795 15.6004 7.02622 16.1638C7.17977 16.9626 7.55812 17.8668 8.00155 18.4948L8.19554 18.7695V21.6422C8.19554 24.4404 8.19774 24.5191 8.28072 24.6768C8.33555 24.781 8.42542 24.8682 8.53293 24.9213C8.6985 25.0032 8.76616 25.0039 16.4463 25.0039C24.1264 25.0039 24.1941 25.0032 24.3596 24.9213C24.4671 24.8682 24.557 24.781 24.6118 24.6768C24.6948 24.5191 24.697 24.4404 24.697 21.6422V18.7695L24.891 18.4948C25.3203 17.8868 25.6664 17.0782 25.8447 16.2664C25.9681 15.7047 25.9804 14.5702 25.8683 14.0989C25.5099 12.592 24.5729 11.3896 23.2353 10.7198C22.5432 10.3733 21.8965 10.2053 21.1005 10.1653L20.614 10.1408L20.9031 10.0841C22.0464 9.85959 23.0151 8.96992 23.3227 7.8619C23.3579 7.73514 23.3985 7.45571 23.4129 7.24092C23.5462 5.26292 21.6406 3.66433 19.6284 4.06621C17.914 4.40861 16.7974 6.03752 17.1483 7.68436C17.402 8.8752 18.386 9.83854 19.6007 10.085C19.8869 10.1432 19.8608 10.1451 18.6042 10.1608C17.1766 10.1786 17.118 10.1878 16.6691 10.4663L16.4463 10.6045L16.2235 10.4663C15.778 10.19 15.7138 10.1797 14.2884 10.1556C13.4477 10.1414 13.0716 10.1227 13.2095 10.1021C14.1644 9.95911 15.1142 9.23012 15.5401 8.31313C15.6941 7.98168 15.7677 7.67423 15.7969 7.24092C15.9143 5.49887 14.4238 3.98601 12.6083 4.00443C12.4269 4.00624 12.1455 4.0354 11.9828 4.06921ZM13.0276 5.27744C13.3941 5.35218 13.6975 5.51426 13.9729 5.78254C15.0641 6.84531 14.4693 8.63589 12.9406 8.89005C12.3402 8.98986 11.7477 8.80223 11.3036 8.37163C10.5521 7.64309 10.5516 6.50865 11.3024 5.78348C11.7723 5.32962 12.392 5.14782 13.0276 5.27744ZM20.6436 5.27744C21.0102 5.35218 21.3135 5.51426 21.589 5.78254C22.6802 6.84531 22.0853 8.63589 20.5566 8.89005C19.9563 8.98986 19.3638 8.80223 18.9196 8.37163C18.1681 7.64309 18.1676 6.50865 18.9185 5.78348C19.3884 5.32962 20.0081 5.14782 20.6436 5.27744ZM15.4399 11.451L15.5717 11.517L15.2791 11.6647C14.8612 11.8755 14.3906 12.3391 14.1888 12.7386C13.9082 13.2942 13.8413 13.869 13.9912 14.437C14.1134 14.9004 14.3013 15.2151 14.6678 15.5704C15.0291 15.9207 15.357 16.1068 15.8202 16.2245L16.1289 16.3029L15.5366 16.3057C14.9116 16.3085 14.6508 16.353 14.2992 16.5165C14.0262 16.6436 13.6066 17.057 13.481 17.3227C13.3797 17.5369 13.3782 17.5381 13.1847 17.5381C12.9068 17.5381 12.3801 17.398 12.0749 17.243C11.7317 17.0687 11.2184 16.571 11.0385 16.2383C10.8761 15.9377 10.7342 15.4306 10.7342 15.1506C10.7342 14.7653 10.4544 14.4615 10.0996 14.4615C9.88402 14.4615 9.64598 14.6064 9.54443 14.7993C9.46472 14.9508 9.45672 15.0149 9.47927 15.3218C9.59609 16.9101 10.7324 18.2407 12.3209 18.6494C12.5739 18.7144 12.8357 18.7418 13.3575 18.7576C14.1699 18.7823 14.3157 18.8271 14.4571 19.0958C14.6236 19.4124 14.5114 19.7651 14.1942 19.922C14.0263 20.0051 13.9756 20.0086 13.2745 19.9862C12.8479 19.9727 12.4097 19.9355 12.2437 19.8989C11.2331 19.676 10.4066 19.2378 9.69383 18.5467C8.97551 17.8503 8.5309 17.0586 8.29421 16.0546C8.18408 15.5873 8.19567 14.5821 8.31613 14.1538C8.70963 12.7549 9.87907 11.7018 11.3196 11.4492C11.561 11.4068 12.1121 11.3913 13.476 11.3886C15.0828 11.3853 15.3243 11.393 15.4399 11.451ZM21.841 11.5004C23.1903 11.8628 24.2103 12.8523 24.5764 14.1538C24.6969 14.5821 24.7085 15.5873 24.5983 16.0546C24.2388 17.5796 23.2685 18.7999 21.8741 19.4807C21.168 19.8254 20.5886 19.9553 19.6181 19.9862C18.9169 20.0086 18.8663 20.0051 18.6984 19.922C18.3853 19.7672 18.2689 19.4123 18.4306 19.1051C18.5748 18.8311 18.7344 18.7808 19.535 18.7571C20.0585 18.7416 20.3179 18.7146 20.5716 18.6494C22.1601 18.2407 23.2965 16.9101 23.4133 15.3218C23.4358 15.0149 23.4278 14.9508 23.3481 14.7993C23.2877 14.6845 23.2014 14.599 23.0903 14.544C22.631 14.3169 22.1583 14.6245 22.1583 15.1506C22.1583 15.4306 22.0165 15.9377 21.854 16.2383C21.6742 16.571 21.1609 17.0687 20.8176 17.243C20.5123 17.3981 19.9858 17.5381 19.7075 17.5381C19.5139 17.5381 19.512 17.5367 19.4088 17.3227C19.2805 17.0567 18.8645 16.6479 18.5899 16.518C18.2403 16.3526 17.9843 16.3086 17.356 16.3057L16.7636 16.3029L17.0724 16.2245C17.5355 16.1068 17.8635 15.9207 18.2248 15.5704C18.8602 14.9543 19.1033 14.1737 18.9213 13.3334C18.7746 12.6556 18.2495 11.9856 17.6137 11.6648L17.3214 11.5173L17.4445 11.4513C17.5536 11.3928 17.7909 11.3867 19.535 11.3974C21.4159 11.4089 21.5174 11.4134 21.841 11.5004ZM17.0148 12.756C17.4574 12.966 17.6927 13.3444 17.6927 13.8461C17.6927 14.1956 17.6049 14.4293 17.3803 14.6773C17.0361 15.0574 16.3768 15.1743 15.8885 14.9418C15.2104 14.619 14.9787 13.8024 15.3876 13.1772C15.7252 12.6612 16.4302 12.4787 17.0148 12.756ZM17.9892 17.6072C18.0715 17.6452 18.1387 17.6868 18.1387 17.6995C18.1386 17.7122 18.0534 17.7748 17.9493 17.8386C17.7094 17.9855 17.4109 18.3059 17.292 18.5441C17.0138 19.1012 17.0159 19.6709 17.2981 20.2317C17.4321 20.4978 17.8538 20.9012 18.1282 21.0256L18.3503 21.1263V22.4498V23.7733H16.4463H14.5423L14.5424 22.4503L14.5426 21.1274L14.8174 20.9896C15.5604 20.6171 15.9668 19.7271 15.7515 18.9433C15.6234 18.4769 15.31 18.0514 14.9393 17.8407C14.8373 17.7828 14.7538 17.722 14.7538 17.7057C14.7538 17.6893 14.8157 17.6461 14.8913 17.6096C15.0093 17.5527 15.2282 17.5429 16.4343 17.5407C17.6685 17.5384 17.8579 17.5465 17.9892 17.6072ZM10.4592 20.5845C11.1846 20.9351 12.0347 21.158 12.8604 21.2141L13.2729 21.2421V22.5077V23.7733H11.3689H9.46489V21.8854V19.9974L9.77165 20.1989C9.94034 20.3097 10.2498 20.4833 10.4592 20.5845ZM23.4277 21.8863V23.7733H21.5237H19.6196V22.5077V21.2421L20.0322 21.2141C20.5525 21.1788 21.1811 21.0564 21.6717 20.895C22.1271 20.7452 22.8641 20.3879 23.1792 20.1643C23.3042 20.0756 23.4113 20.0022 23.4171 20.0011C23.4229 20.0001 23.4277 20.8485 23.4277 21.8863Z" fill="url(#paint0_linear_4335_40010)"/>
<defs>
<linearGradient id="paint0_linear_4335_40010" x1="7.71224" y1="8.42806" x2="28.4742" y2="11.805" gradientUnits="userSpaceOnUse">
<stop stop-color="#6A58FB"/>
<stop offset="1" stop-color="#4599F4"/>
</linearGradient>
</defs>
</svg>
