<svg width="26" height="26" viewBox="0 0 27 27" fill="none" xmlns="http://www.w3.org/2000/svg">
<path d="M13.7109 3.97495C14.6271 2.93692 15.9676 2.28223 17.4609 2.28223C20.2224 2.28223 22.4609 4.5208 22.4609 7.28223C22.4609 10.0437 20.2224 12.2822 17.4609 12.2822C15.9676 12.2822 14.6271 11.6275 13.7109 10.5895M17.4609 24.7822H2.46094V23.5322C2.46094 19.3901 5.8188 16.0322 9.96094 16.0322C14.1031 16.0322 17.4609 19.3901 17.4609 23.5322V24.7822ZM17.4609 24.7822H24.9609V23.5322C24.9609 19.3901 21.6031 16.0322 17.4609 16.0322C16.0949 16.0322 14.8141 16.3975 13.7109 17.0356M14.9609 7.28223C14.9609 10.0437 12.7224 12.2822 9.96094 12.2822C7.19951 12.2822 4.96094 10.0437 4.96094 7.28223C4.96094 4.5208 7.19951 2.28223 9.96094 2.28223C12.7224 2.28223 14.9609 4.5208 14.9609 7.28223Z" stroke="url(#paint0_linear_14115_7152)" stroke-width="3" stroke-linecap="round" stroke-linejoin="round"/>
<defs>
<linearGradient id="paint0_linear_14115_7152" x1="2.36914" y1="6.0224" x2="26.8161" y2="10.4172" gradientUnits="userSpaceOnUse">
<stop stop-color="#6A58FB"/>
<stop offset="1" stop-color="#4599F4"/>
</linearGradient>
</defs>
</svg>
