<svg width="31" height="31" viewBox="0 0 31 31" fill="none" xmlns="http://www.w3.org/2000/svg">
<path d="M15.6836 5.9437C16.5998 4.90567 17.9402 4.25098 19.4336 4.25098C22.195 4.25098 24.4336 6.48955 24.4336 9.25098C24.4336 12.0124 22.195 14.251 19.4336 14.251C17.9402 14.251 16.5998 13.5963 15.6836 12.5583M19.4336 26.751H4.43359V25.501C4.43359 21.3588 7.79146 18.001 11.9336 18.001C16.0757 18.001 19.4336 21.3588 19.4336 25.501V26.751ZM19.4336 26.751H26.9336V25.501C26.9336 21.3588 23.5757 18.001 19.4336 18.001C18.0675 18.001 16.7867 18.3662 15.6836 19.0043M16.9336 9.25098C16.9336 12.0124 14.695 14.251 11.9336 14.251C9.17217 14.251 6.93359 12.0124 6.93359 9.25098C6.93359 6.48955 9.17217 4.25098 11.9336 4.25098C14.695 4.25098 16.9336 6.48955 16.9336 9.25098Z" stroke="url(#paint0_linear_4326_38013)" stroke-width="3" stroke-linecap="round" stroke-linejoin="round"/>
<defs>
<linearGradient id="paint0_linear_4326_38013" x1="5.3418" y1="8.99115" x2="29.7887" y2="13.386" gradientUnits="userSpaceOnUse">
<stop stop-color="#6A58FB"/>
<stop offset="1" stop-color="#4599F4"/>
</linearGradient>
</defs>
</svg>
