<svg width="17" height="21" viewBox="0 0 17 21" fill="none" xmlns="http://www.w3.org/2000/svg">
<path d="M9.7181 2.16536L14.7493 7.19661V18.832H2.24935V2.16536H9.7181ZM10.5827 0.0820312H2.24935C1.10352 0.0820312 0.166016 1.01953 0.166016 2.16536V18.832C0.166016 19.9779 1.10352 20.9154 2.24935 20.9154H14.7493C15.8952 20.9154 16.8327 19.9779 16.8327 18.832V6.33203L10.5827 0.0820312ZM8.49935 12.582C9.64518 12.582 10.5827 11.6445 10.5827 10.4987C10.5827 9.35286 9.64518 8.41536 8.49935 8.41536C7.35352 8.41536 6.41602 9.35286 6.41602 10.4987C6.41602 11.6445 7.35352 12.582 8.49935 12.582ZM12.666 16.1549C12.666 15.3112 12.166 14.5612 11.3952 14.2279C10.5098 13.8424 9.5306 13.6237 8.49935 13.6237C7.4681 13.6237 6.48893 13.8424 5.60352 14.2279C4.83268 14.5612 4.33268 15.3112 4.33268 16.1549V16.7487H12.666V16.1549Z" fill="#333333"/>
</svg>
