<svg width="21" height="19" viewBox="0 0 21 19" fill="none" xmlns="http://www.w3.org/2000/svg">
<path d="M7.3737 0.125C4.49721 0.125 2.16536 2.45685 2.16536 5.33333C2.16536 8.20982 4.49721 10.5417 7.3737 10.5417C10.2502 10.5417 12.582 8.20982 12.582 5.33333C12.582 2.45685 10.2502 0.125 7.3737 0.125ZM4.2487 5.33333C4.2487 3.60744 5.64781 2.20833 7.3737 2.20833C9.09959 2.20833 10.4987 3.60744 10.4987 5.33333C10.4987 7.05922 9.09959 8.45833 7.3737 8.45833C5.64781 8.45833 4.2487 7.05922 4.2487 5.33333Z" fill="#333333"/>
<path d="M15.6116 5.56071C15.3186 5.41129 14.9943 5.3334 14.6654 5.3334V3.25006C15.3233 3.25006 15.9718 3.4058 16.558 3.70464C16.6225 3.73755 16.6861 3.7721 16.7487 3.80823C17.2543 4.10014 17.6937 4.49551 18.0375 4.96933C18.424 5.50179 18.6788 6.1182 18.7812 6.76809C18.8837 7.41798 18.8307 8.08289 18.6267 8.70839C18.4228 9.33389 18.0736 9.9022 17.6078 10.3668C17.142 10.8314 16.5727 11.1791 15.9467 11.3814C15.3896 11.5615 14.8017 11.6218 14.2211 11.5596C14.1493 11.5519 14.0776 11.5423 14.006 11.5308C13.3568 11.4268 12.7415 11.1706 12.2103 10.7832L12.2092 10.7824L13.4373 9.09955C13.703 9.29346 14.0109 9.42163 14.3357 9.47369C14.6605 9.52574 14.993 9.50014 15.306 9.39898C15.619 9.29783 15.9036 9.12398 16.1365 8.89169C16.3694 8.65939 16.544 8.37525 16.646 8.06251C16.748 7.74977 16.7744 7.41733 16.7232 7.09239C16.672 6.76745 16.5446 6.45926 16.3514 6.19303C16.1582 5.92681 15.9047 5.71012 15.6116 5.56071Z" fill="#333333"/>
<path d="M18.8301 18.875C18.8301 18.3281 18.7223 17.7865 18.513 17.2812C18.3037 16.776 17.997 16.3168 17.6102 15.9301C17.2235 15.5434 16.7644 15.2366 16.2591 15.0273C15.7538 14.818 15.2123 14.7103 14.6654 14.7103V12.625C15.3759 12.625 16.0803 12.7461 16.7487 12.9824C16.8524 13.0191 16.9553 13.0586 17.0571 13.1008C17.8154 13.4148 18.5044 13.8752 19.0848 14.4556C19.6651 15.0359 20.1255 15.7249 20.4396 16.4832C20.4818 16.5851 20.5212 16.6879 20.5579 16.7917C20.7942 17.46 20.9154 18.1645 20.9154 18.875H18.8301Z" fill="#333333"/>
<path d="M14.6654 18.875H12.582C12.582 15.9985 10.2502 13.6667 7.3737 13.6667C4.49721 13.6667 2.16536 15.9985 2.16536 18.875H0.0820312C0.0820312 14.8479 3.34662 11.5833 7.3737 11.5833C11.4008 11.5833 14.6654 14.8479 14.6654 18.875Z" fill="#333333"/>
</svg>
