<svg width="22" height="19" viewBox="0 0 22 19" fill="none" xmlns="http://www.w3.org/2000/svg">
<path d="M14.6 4.20156C14.6 6.18979 12.9882 7.80156 11 7.80156C9.01173 7.80156 7.39995 6.18979 7.39995 4.20156C7.39995 2.21334 9.01173 0.601562 11 0.601562C12.9882 0.601562 14.6 2.21334 14.6 4.20156Z" fill="#7B838A"/>
<path d="M20.6 6.60156C20.6 7.92705 19.5254 9.00156 18.1999 9.00156C16.8745 9.00156 15.8 7.92705 15.8 6.60156C15.8 5.27608 16.8745 4.20156 18.1999 4.20156C19.5254 4.20156 20.6 5.27608 20.6 6.60156Z" fill="#7B838A"/>
<path d="M15.8 15.0016C15.8 12.3506 13.6509 10.2016 11 10.2016C8.34898 10.2016 6.19995 12.3506 6.19995 15.0016V18.6016H15.8V15.0016Z" fill="#7B838A"/>
<path d="M6.19995 6.60156C6.19995 7.92705 5.12543 9.00156 3.79995 9.00156C2.47447 9.00156 1.39995 7.92705 1.39995 6.60156C1.39995 5.27608 2.47447 4.20156 3.79995 4.20156C5.12543 4.20156 6.19995 5.27608 6.19995 6.60156Z" fill="#7B838A"/>
<path d="M18.1999 18.6016V15.0016C18.1999 13.7366 17.8737 12.5478 17.3008 11.5148C17.5882 11.4409 17.8895 11.4016 18.1999 11.4016C20.1882 11.4016 21.7999 13.0133 21.7999 15.0016V18.6016H18.1999Z" fill="#7B838A"/>
<path d="M4.69907 11.5148C4.12617 12.5478 3.79995 13.7366 3.79995 15.0016V18.6016H0.199951V15.0016C0.199951 13.0133 1.81173 11.4016 3.79995 11.4016C4.1104 11.4016 4.41167 11.4409 4.69907 11.5148Z" fill="#7B838A"/>
</svg>