<svg width="30" height="30" viewBox="0 0 30 30" fill="none" xmlns="http://www.w3.org/2000/svg">
<circle cx="15.625" cy="14.375" r="13.125" fill="black"/>
<path d="M11.2018 16.5972C11.2934 15.839 11.6043 15.4146 12.1903 14.9794C13.0287 14.3901 14.0759 14.7234 14.0759 14.7234V12.7458C14.3305 12.7393 14.5852 12.7544 14.8371 12.7909V15.3359C14.8371 15.3359 13.7901 15.0026 12.9517 15.5922C12.3661 16.027 12.0545 16.4518 11.9633 17.21C11.9604 17.6216 12.0377 18.1598 12.3934 18.6251C12.3055 18.58 12.2158 18.5286 12.1245 18.4709C11.3407 17.9446 11.198 17.1551 11.2018 16.5972ZM19.1613 9.08917C18.5846 8.45718 18.3665 7.81909 18.2876 7.37085H19.0131C19.0131 7.37085 18.8685 8.54616 19.9228 9.70196L19.9374 9.7175C19.6532 9.53877 19.3927 9.32779 19.1613 9.08917ZM22.6564 10.8809V13.3748C22.6564 13.3748 21.7305 13.3385 21.0454 13.1642C20.0887 12.9204 19.4738 12.5465 19.4738 12.5465C19.4738 12.5465 19.0491 12.2799 19.0147 12.2613V17.4111C19.0147 17.6978 18.9362 18.4139 18.6968 19.0112C18.3843 19.7925 17.902 20.3053 17.8133 20.4101C17.8133 20.4101 17.2267 21.1034 16.1918 21.5702C15.259 21.9913 14.44 21.9807 14.1952 21.9913C14.1952 21.9913 12.7794 22.0474 11.5054 21.2195C11.2299 21.037 10.9728 20.8303 10.7373 20.6021L10.7437 20.6067C12.0179 21.4346 13.4334 21.3785 13.4334 21.3785C13.6785 21.3679 14.4975 21.3785 15.43 20.9574C16.4639 20.4906 17.0515 19.7973 17.0515 19.7973C17.1392 19.6925 17.6238 19.1797 17.935 18.3981C18.1738 17.8011 18.253 17.0847 18.253 16.798V11.6488C18.2873 11.6677 18.7117 11.9343 18.7117 11.9343C18.7117 11.9343 19.3269 12.3085 20.2836 12.552C20.9691 12.7263 21.8946 12.7626 21.8946 12.7626V10.8084C22.2112 10.8794 22.4812 10.8986 22.6564 10.8809Z" fill="#EE1D52"/>
<path d="M21.8949 10.8084V12.762C21.8949 12.762 20.9694 12.7257 20.2839 12.5514C19.3273 12.3076 18.7121 11.9337 18.7121 11.9337C18.7121 11.9337 18.2876 11.6671 18.2533 11.6482V16.7986C18.2533 17.0853 18.1748 17.8017 17.9354 18.3987C17.6228 19.1803 17.1405 19.6931 17.0518 19.798C17.0518 19.798 16.4649 20.4912 15.4303 20.958C14.4978 21.3791 13.6788 21.3685 13.4337 21.3791C13.4337 21.3791 12.0183 21.4352 10.744 20.6073L10.7376 20.6027C10.6031 20.4724 10.4765 20.3349 10.3583 20.1907C9.9517 19.695 9.70244 19.1087 9.6398 18.9414C9.63969 18.9407 9.63969 18.94 9.6398 18.9393C9.53902 18.6485 9.32727 17.9504 9.35621 17.2743C9.40739 16.0813 9.82707 15.349 9.93803 15.1656C10.2319 14.6654 10.6141 14.2178 11.0676 13.8428C11.4679 13.5192 11.9215 13.2618 12.41 13.081C12.938 12.8688 13.5034 12.755 14.0759 12.7458V14.7234C14.0759 14.7234 13.0287 14.3913 12.1906 14.9794C11.6046 15.4146 11.2937 15.839 11.2021 16.5972C11.1983 17.1551 11.3411 17.9446 12.1241 18.4712C12.2155 18.5291 12.3052 18.5805 12.3931 18.6254C12.5299 18.8032 12.6964 18.9582 12.8859 19.084C13.6509 19.5682 14.2918 19.602 15.1115 19.2875C15.658 19.0773 16.0694 18.6034 16.2602 18.0784C16.38 17.7505 16.3784 17.4205 16.3784 17.0792V7.37085H18.286C18.3649 7.81909 18.583 8.45718 19.1597 9.08917C19.3911 9.32779 19.6517 9.53877 19.9358 9.7175C20.0197 9.80435 20.4489 10.2337 20.9999 10.4973C21.2848 10.6335 21.5851 10.7379 21.8949 10.8084Z" fill="white"/>
<path d="M8.88086 18.334V18.3355L8.92819 18.4638C8.92276 18.4489 8.90517 18.4035 8.88086 18.334Z" fill="#69C9D0"/>
<path d="M12.4099 13.0811C11.9214 13.2618 11.4678 13.5193 11.0675 13.8429C10.6138 14.2187 10.2317 14.6672 9.93823 15.1684C9.82727 15.3512 9.4076 16.0841 9.35641 17.2771C9.32748 17.9532 9.53922 18.6514 9.64001 18.9421C9.6399 18.9428 9.6399 18.9435 9.64001 18.9442C9.70359 19.11 9.9519 19.6962 10.3585 20.1935C10.4767 20.3377 10.6033 20.4753 10.7378 20.6055C10.3068 20.3198 9.92234 19.9743 9.59709 19.5804C9.19395 19.0889 8.94532 18.5087 8.88046 18.3375C8.88039 18.3363 8.88039 18.3351 8.88046 18.3338V18.3317C8.77936 18.0413 8.56698 17.3429 8.59655 16.6658C8.64773 15.4728 9.06741 14.7406 9.17837 14.5571C9.47178 14.0559 9.85391 13.6074 10.3077 13.2316C10.7078 12.9079 11.1615 12.6504 11.65 12.4698C11.9547 12.3486 12.2721 12.2592 12.5968 12.2032C13.0861 12.1213 13.5858 12.1142 14.0774 12.1821V12.7459C13.5044 12.7549 12.9384 12.8686 12.4099 13.0811Z" fill="#69C9D0"/>
<path d="M18.2877 7.37091H16.3801V17.0796C16.3801 17.4209 16.3801 17.75 16.2619 18.0788C16.0692 18.6035 15.6594 19.0773 15.1132 19.2876C14.2932 19.6033 13.6523 19.5683 12.8876 19.0841C12.6978 18.9588 12.5309 18.8044 12.3936 18.627C13.045 18.96 13.6281 18.9542 14.3504 18.6763C14.8963 18.4661 15.3068 17.9922 15.4988 17.4672C15.619 17.1393 15.6174 16.8093 15.6174 16.4683V6.75781H18.2515C18.2515 6.75781 18.2219 6.99915 18.2877 7.37091ZM21.895 10.2682V10.8085C21.5858 10.7379 21.286 10.6335 21.0016 10.4973C20.4507 10.2338 20.0214 9.80441 19.9375 9.71756C20.0349 9.77885 20.136 9.83461 20.2402 9.88455C20.9101 10.2051 21.5698 10.3008 21.895 10.2682Z" fill="#69C9D0"/>
</svg>
