<svg width="25" height="25" viewBox="0 0 25 25" fill="none" xmlns="http://www.w3.org/2000/svg">
<g clip-path="url(#clip0_13535_32423)">
<path d="M21.875 7.58333V5.20833C21.875 4.0625 20.9375 3.125 19.7917 3.125H5.20833C4.05208 3.125 3.125 4.0625 3.125 5.20833V19.7917C3.125 20.9375 4.05208 21.875 5.20833 21.875H19.7917C20.9375 21.875 21.875 20.9375 21.875 19.7917V17.4167C22.4896 17.0521 22.9167 16.3958 22.9167 15.625V9.375C22.9167 8.60417 22.4896 7.94792 21.875 7.58333ZM20.8333 9.375V15.625H13.5417V9.375H20.8333ZM5.20833 19.7917V5.20833H19.7917V7.29167H13.5417C12.3958 7.29167 11.4583 8.22917 11.4583 9.375V15.625C11.4583 16.7708 12.3958 17.7083 13.5417 17.7083H19.7917V19.7917H5.20833Z" fill="#333333"/>
<path d="M16.666 14.0625C17.529 14.0625 18.2285 13.3629 18.2285 12.5C18.2285 11.6371 17.529 10.9375 16.666 10.9375C15.8031 10.9375 15.1035 11.6371 15.1035 12.5C15.1035 13.3629 15.8031 14.0625 16.666 14.0625Z" fill="#333333"/>
</g>
<defs>
<clipPath id="clip0_13535_32423">
<rect width="25" height="25" fill="white"/>
</clipPath>
</defs>
</svg>
