<svg width="30" height="30" viewBox="0 0 30 30" fill="none" xmlns="http://www.w3.org/2000/svg">
<circle cx="15" cy="15" r="12.5" fill="#FF0000"/>
<path fill-rule="evenodd" clip-rule="evenodd" d="M22.0628 10.2363C22.3122 10.4857 22.492 10.7962 22.5841 11.1367C23.1147 13.2723 22.9921 16.6453 22.5944 18.8633C22.5023 19.2038 22.3225 19.5143 22.0731 19.7637C21.8237 20.0131 21.5132 20.1929 21.1727 20.285C19.9262 20.625 14.909 20.625 14.909 20.625C14.909 20.625 9.89182 20.625 8.64525 20.285C8.30474 20.1929 7.99431 20.0131 7.74487 19.7637C7.49543 19.5143 7.31569 19.2038 7.22355 18.8633C6.6899 16.737 6.83619 13.362 7.21325 11.147C7.30539 10.8065 7.48513 10.496 7.73457 10.2466C7.984 9.99716 8.29444 9.81741 8.63495 9.72528C9.88152 9.3853 14.8987 9.375 14.8987 9.375C14.8987 9.375 19.9159 9.375 21.1624 9.71497C21.5029 9.80712 21.8134 9.98686 22.0628 10.2363ZM17.4639 15L13.3018 17.4107V12.5893L17.4639 15Z" fill="white"/>
</svg>
