<svg width="20" height="14" viewBox="0 0 20 14" fill="none" xmlns="http://www.w3.org/2000/svg">
<path d="M10.2227 13.6673H10.204C10.146 13.6673 4.33853 13.6561 2.87333 13.2582C2.06763 13.0411 1.43841 12.4116 1.22182 11.6057C0.95834 10.1193 0.831109 8.61198 0.841706 7.10245C0.834899 5.59045 0.965573 4.08096 1.23211 2.59262C1.45466 1.78607 2.08112 1.15359 2.8855 0.923321C4.31044 0.548828 9.9578 0.548828 10.1975 0.548828H10.2171C10.2761 0.548828 16.0985 0.560063 17.5488 0.957961C18.3528 1.17611 18.9807 1.80441 19.1984 2.60854C19.4703 4.10046 19.5979 5.61509 19.5794 7.13147C19.586 8.64165 19.455 10.1493 19.1881 11.6357C18.9687 12.4405 18.3391 13.0687 17.5338 13.2863C16.1107 13.6636 10.4624 13.6673 10.2227 13.6673ZM8.35029 4.29844L8.3456 9.91583L13.2252 7.10713L8.35029 4.29844Z" fill="url(#paint0_linear_14175_37520)"/>
<defs>
<linearGradient id="paint0_linear_14175_37520" x1="1.59753" y1="3.31255" x2="21.3168" y2="8.37661" gradientUnits="userSpaceOnUse">
<stop stop-color="#6A58FB"/>
<stop offset="1" stop-color="#4599F4"/>
</linearGradient>
</defs>
</svg>