<svg width="51" height="50" viewBox="0 0 51 50" fill="none" xmlns="http://www.w3.org/2000/svg">
<circle cx="25.5" cy="25.0013" r="20.8333" fill="#FF0000"/>
<path fill-rule="evenodd" clip-rule="evenodd" d="M37.2714 17.0605C37.6871 17.4762 37.9867 17.9936 38.1402 18.5611C39.0245 22.1205 38.8202 27.7421 38.1574 31.4389C38.0038 32.0064 37.7043 32.5238 37.2886 32.9395C36.8728 33.3552 36.3554 33.6548 35.7879 33.8084C33.7103 34.375 25.3484 34.375 25.3484 34.375C25.3484 34.375 16.9864 34.375 14.9088 33.8084C14.3413 33.6548 13.8239 33.3552 13.4082 32.9395C12.9924 32.5238 12.6929 32.0064 12.5393 31.4389C11.6499 27.8949 11.8937 22.2699 12.5221 18.5783C12.6757 18.0108 12.9753 17.4934 13.391 17.0777C13.8067 16.6619 14.3241 16.3624 14.8916 16.2088C16.9692 15.6422 25.3312 15.625 25.3312 15.625C25.3312 15.625 33.6931 15.625 35.7707 16.1916C36.3383 16.3452 36.8557 16.6448 37.2714 17.0605ZM29.6066 25L22.6698 29.0178V20.9821L29.6066 25Z" fill="white"/>
</svg>
