<svg width="38" height="16" viewBox="0 0 38 16" fill="none" xmlns="http://www.w3.org/2000/svg">
<g clipPath="url(#clip0_1831_22256)">
<path d="M3.30886 12.8718C4.09736 12.8414 4.4077 12.3486 5.3577 12.3486C6.31403 12.3486 6.5927 12.8718 7.42395 12.8606C8.28528 12.843 8.8252 12.0702 9.35403 11.2766C9.95253 10.3742 10.2027 9.50544 10.2154 9.45584C10.1979 9.43824 8.55286 8.79184 8.53545 6.84304C8.51803 5.21104 9.83536 4.43664 9.89395 4.38864C9.14978 3.25583 7.99078 3.13423 7.58703 3.10383L7.58861 3.10543C6.55628 3.04463 5.67278 3.70863 5.18511 3.70863C4.68636 3.70863 3.93903 3.13583 3.11886 3.15343C2.05803 3.17263 1.07161 3.78863 0.531697 4.76783C-0.584553 6.73423 0.240364 9.63984 1.3202 11.2414C1.84745 12.0334 2.47761 12.9038 3.30886 12.8718ZM22.5622 6.69904H24.1835C24.3197 5.96784 24.9784 5.48784 25.8824 5.48784C26.9813 5.48784 27.5988 6.01104 27.5988 6.97904V7.63664L25.3536 7.77744C23.2699 7.90544 22.141 8.78224 22.141 10.3038C22.1474 11.8382 23.3095 12.8606 24.9799 12.8606C26.1073 12.8606 27.1523 12.2766 27.6273 11.3454H27.6637V12.771H29.3262V6.86384C29.3262 5.15344 27.9899 4.04463 25.9363 4.04463C24.0284 4.04463 22.6176 5.16464 22.5622 6.69904ZM27.6035 9.55663C27.6035 10.6654 26.6836 11.4558 25.466 11.4558C24.5097 11.4558 23.8985 10.9806 23.8985 10.2622C23.8985 9.51344 24.4859 9.08144 25.6085 9.01424L27.6035 8.88624V9.55663ZM13.5499 0.900635V12.7694H15.3485V8.71503H17.8375C20.1112 8.71503 21.7024 7.11184 21.7024 4.79823C21.7024 2.48463 20.1349 0.900635 17.8961 0.900635H13.5499ZM19.8737 4.80303C19.8737 6.30063 18.9839 7.16624 17.4148 7.16624H15.3485V2.45424H17.4211C18.9823 2.45424 19.8737 3.30543 19.8737 4.80303ZM34.0208 11.1678L31.907 4.15823H30.0308L33.0708 12.8014L32.9045 13.3246C32.6306 14.2142 32.1857 14.5614 31.3909 14.5614C31.2484 14.5614 30.976 14.5438 30.8636 14.531V15.9566L31.5524 15.9998L31.5508 15.9982C33.3035 15.9982 34.1269 15.3086 34.8473 13.2334L37.9997 4.15823H36.1709L34.0572 11.1678H34.0208Z" fill="#333333"/>
<path d="M7.45392 3.10223C6.47858 3.10223 5.6505 3.70863 5.185 3.70863C4.69417 3.70863 3.96108 3.15343 3.15675 3.15343C3.14408 3.15343 3.13142 3.15343 3.11875 3.15343C2.05792 3.17263 1.0715 3.78863 0.531585 4.76783C-0.00358164 5.71183 -0.0922483 6.87183 0.0787517 7.99983H8.76808C8.62875 7.67983 8.53692 7.29583 8.53217 6.84303C8.51475 5.21103 9.83208 4.43663 9.89067 4.38863C9.14967 3.25583 7.99067 3.13423 7.58692 3.10383L7.5885 3.10543C7.54417 3.10383 7.49825 3.10223 7.45392 3.10223ZM25.9346 4.04463C24.0282 4.04463 22.6159 5.16463 22.5621 6.69903H24.1834C24.3196 5.96783 24.9783 5.48783 25.8823 5.48783C26.9812 5.48783 27.5987 6.01103 27.5987 6.97903V7.63663L25.3535 7.77743C24.8484 7.80783 24.3988 7.88303 24.0077 8.00143H29.3245V6.86543C29.3261 5.15183 27.9897 4.04463 25.9346 4.04463ZM15.3484 7.16783V2.45423H17.421C18.9822 2.45423 19.8736 3.30703 19.8736 4.80463C19.8736 6.30223 18.9837 7.16783 17.4147 7.16783H15.3484ZM17.896 0.900635H13.5498V7.99983H20.1823C21.1292 7.31663 21.7008 6.18543 21.7008 4.79823C21.7023 2.48463 20.1348 0.900635 17.896 0.900635ZM31.9069 4.15823H30.0307L31.3828 7.99983H33.0659L31.9069 4.15823ZM37.9996 4.15823H36.1708L35.0118 7.99983H36.6648L37.9996 4.15823Z" fill="#333333"/>
<path d="M5.07148 2.96628C5.78398 3.02708 6.49648 2.60148 6.94298 2.05908V2.05748C7.38156 1.50388 7.6729 0.753478 7.60165 -0.00012207C6.96673 0.0318779 6.18931 0.425478 5.74281 0.980678C5.33273 1.45428 4.98281 2.23508 5.07148 2.96628Z" fill="#333333"/>
<path d="M7.60146 -0.00012207C6.96654 0.0318779 6.18913 0.425478 5.74263 0.980678C5.61913 1.12468 5.50038 1.29588 5.39746 1.48628H7.30538C7.52863 1.03508 7.65055 0.518278 7.60146 -0.00012207Z" fill="#333333"/>
</g>
<defs>
<clipPath id="clip0_1831_22256">
<rect width="38" height="16" fill="white"/>
</clipPath>
</defs>
</svg>
