<svg width="58" height="58" viewBox="0 0 58 58" fill="none" xmlns="http://www.w3.org/2000/svg">
<path d="M35.7191 31.2122L30.2816 25.7747C29.9417 25.4349 29.4808 25.244 29.0002 25.244C28.5196 25.244 28.0586 25.4349 27.7188 25.7747L22.2813 31.2122C21.9511 31.554 21.7684 32.0119 21.7725 32.4871C21.7767 32.9623 21.9673 33.4169 22.3033 33.753C22.6394 34.089 23.094 34.2797 23.5692 34.2838C24.0444 34.2879 24.5023 34.1052 24.8441 33.7751L27.1877 31.4315V41.5036C27.1877 41.9843 27.3786 42.4453 27.7186 42.7852C28.0585 43.1251 28.5195 43.3161 29.0002 43.3161C29.4809 43.3161 29.9419 43.1251 30.2818 42.7852C30.6217 42.4453 30.8127 41.9843 30.8127 41.5036V31.4315L33.1562 33.7751C33.4981 34.1052 33.9559 34.2879 34.4312 34.2838C34.9064 34.2797 35.361 34.089 35.697 33.753C36.0331 33.4169 36.2237 32.9623 36.2278 32.4871C36.232 32.0119 36.0493 31.554 35.7191 31.2122Z" fill="url(#paint0_linear_1612_22748)"/>
<path d="M45.3125 18.1253C44.6739 18.1246 44.0365 18.1798 43.4076 18.2903C43.0218 14.9183 41.4653 11.7884 39.0093 9.44593C36.5534 7.10341 33.3535 5.69665 29.967 5.47067C26.5805 5.24469 23.2221 6.21381 20.4766 8.20923C17.7312 10.2047 15.7727 13.0999 14.9423 16.3908C14.4946 16.3386 14.0444 16.3126 13.5938 16.3128C10.4692 16.3128 7.47256 17.5541 5.26315 19.7635C3.05374 21.9729 1.8125 24.9695 1.8125 28.0941C1.8125 31.2187 3.05374 34.2153 5.26315 36.4247C7.47256 38.6341 10.4692 39.8753 13.5938 39.8753H19.9375C20.4182 39.8753 20.8792 39.6844 21.2191 39.3445C21.559 39.0046 21.75 38.5435 21.75 38.0628C21.75 37.5821 21.559 37.1211 21.2191 36.7812C20.8792 36.4413 20.4182 36.2503 19.9375 36.2503H13.5938C11.4306 36.2503 9.356 35.391 7.82641 33.8614C6.29682 32.3318 5.4375 30.2573 5.4375 28.0941C5.4375 25.9309 6.29682 23.8563 7.82641 22.3268C9.356 20.7972 11.4306 19.9378 13.5938 19.9378C14.3663 19.9366 15.1347 20.0502 15.8739 20.275C16.1293 20.3528 16.3988 20.3733 16.6631 20.3349C16.9274 20.2965 17.1799 20.2001 17.4026 20.0527C17.6253 19.9054 17.8127 19.7106 17.9514 19.4824C18.09 19.2541 18.1766 18.9981 18.2048 18.7325C18.5375 15.9911 19.9007 13.479 22.0178 11.7059C24.1349 9.93272 26.8472 9.03138 29.6044 9.18474C32.3617 9.3381 34.9574 10.5347 36.8647 12.5317C38.7721 14.5286 39.8483 17.1765 39.875 19.9378C39.8805 20.1145 39.8744 20.2913 39.8569 20.4671C39.8127 20.7876 39.8551 21.1142 39.9797 21.4128C40.1043 21.7114 40.3066 21.9712 40.5655 22.1652C40.8245 22.3593 41.1307 22.4804 41.4523 22.5162C41.7739 22.5519 42.0992 22.5009 42.3944 22.3684C43.3115 21.9554 44.3067 21.7446 45.3125 21.7503C47.2353 21.7503 49.0794 22.5142 50.439 23.8738C51.7987 25.2335 52.5625 27.0775 52.5625 29.0003C52.5625 30.9232 51.7987 32.7672 50.439 34.1269C49.0794 35.4865 47.2353 36.2503 45.3125 36.2503H38.0625C37.5818 36.2503 37.1208 36.4413 36.7809 36.7812C36.441 37.1211 36.25 37.5821 36.25 38.0628C36.25 38.5435 36.441 39.0046 36.7809 39.3445C37.1208 39.6844 37.5818 39.8753 38.0625 39.8753H45.3125C48.1967 39.8753 50.9628 38.7296 53.0023 36.6901C55.0417 34.6507 56.1875 31.8846 56.1875 29.0003C56.1875 26.1161 55.0417 23.35 53.0023 21.3106C50.9628 19.2711 48.1967 18.1253 45.3125 18.1253Z" fill="#7B838A"/>
<defs>
<linearGradient id="paint0_linear_1612_22748" x1="22.3559" y1="29.0513" x2="38.2414" y2="31.3356" gradientUnits="userSpaceOnUse">
<stop stopColor="#6A58FB"/>
<stop offset="1" stopColor="#4599F4"/>
</linearGradient>
</defs>
</svg>
