<svg width="17" height="21" viewBox="0 0 17 21" fill="none" xmlns="http://www.w3.org/2000/svg">
<path d="M5.37469 3.20833H3.29135C2.14075 3.20833 1.20801 4.14107 1.20801 5.29167V17.7917C1.20801 18.9423 2.14075 19.875 3.29135 19.875H13.708C14.8586 19.875 15.7914 18.9423 15.7914 17.7917V5.29167C15.7914 4.14107 14.8586 3.20833 13.708 3.20833H11.6247M5.37469 3.20833C5.37469 4.35893 6.30743 5.29167 7.45803 5.29167H9.54137C10.692 5.29167 11.6247 4.35893 11.6247 3.20833M5.37469 3.20833C5.37469 2.05774 6.30743 1.125 7.45803 1.125H9.54137C10.692 1.125 11.6247 2.05774 11.6247 3.20833M8.4997 10.5H11.6247M8.4997 14.6667H11.6247M5.37469 10.5H5.38511M5.37469 14.6667H5.38511" stroke="#333333" stroke-width="2" stroke-linecap="round"/>
</svg>
