<svg width="50" height="50" viewBox="0 0 50 50" fill="none" xmlns="http://www.w3.org/2000/svg">
<path d="M3.125 18.125C3.125 12.8745 3.125 10.2493 4.14681 8.24384C5.04563 6.47982 6.47982 5.04563 8.24384 4.14681C10.2493 3.125 12.8745 3.125 18.125 3.125H31.875C37.1255 3.125 39.7507 3.125 41.7562 4.14681C43.5202 5.04563 44.9544 6.47982 45.8532 8.24384C46.875 10.2493 46.875 12.8745 46.875 18.125V31.875C46.875 37.1255 46.875 39.7507 45.8532 41.7562C44.9544 43.5202 43.5202 44.9544 41.7562 45.8532C39.7507 46.875 37.1255 46.875 31.875 46.875H18.125C12.8745 46.875 10.2493 46.875 8.24384 45.8532C6.47982 44.9544 5.04563 43.5202 4.14681 41.7562C3.125 39.7507 3.125 37.1255 3.125 31.875V18.125Z" fill="#5865F2"/>
<path d="M36.9314 14.5937C34.7062 13.6156 32.3269 12.9047 29.8396 12.5C29.534 13.0189 29.1771 13.7168 28.9311 14.272C26.2869 13.8984 23.667 13.8984 21.0714 14.272C20.8254 13.7168 20.4604 13.0189 20.1522 12.5C17.6621 12.9047 15.2801 13.6182 13.055 14.5989C8.56681 20.9708 7.35014 27.1846 7.95847 33.31C10.9353 35.3985 13.8201 36.6672 16.6563 37.4974C17.3566 36.592 17.9811 35.6295 18.5192 34.615C17.4945 34.2492 16.513 33.7978 15.5856 33.2736C15.8317 33.1025 16.0723 32.9234 16.3048 32.7393C21.961 35.2247 28.1065 35.2247 33.6951 32.7393C33.9302 32.9234 34.1709 33.1025 34.4143 33.2736C33.4842 33.8003 32.5 34.2518 31.4753 34.6176C32.0134 35.6295 32.6352 36.5946 33.3381 37.5C36.177 36.6698 39.0646 35.4011 42.0414 33.31C42.7552 26.2091 40.822 20.0524 36.9314 14.5937ZM19.2897 29.5429C17.5918 29.5429 16.1994 28.0536 16.1994 26.2402C16.1994 24.4267 17.562 22.9349 19.2897 22.9349C21.0174 22.9349 22.4098 24.4241 22.38 26.2402C22.3828 28.0536 21.0174 29.5429 19.2897 29.5429ZM30.7102 29.5429C29.0123 29.5429 27.6198 28.0536 27.6198 26.2402C27.6198 24.4267 28.9825 22.9349 30.7102 22.9349C32.4378 22.9349 33.8303 24.4241 33.8005 26.2402C33.8005 28.0536 32.4378 29.5429 30.7102 29.5429Z" fill="white"/>
</svg>
