<svg width="43" height="16" viewBox="0 0 43 16" fill="none" xmlns="http://www.w3.org/2000/svg">
<g clipPath="url(#clip0_1831_22244)">
<path d="M19.5601 7.54288V12.4797H17.9082V0.285579H22.287C23.3441 0.263479 24.3636 0.644279 25.1232 1.34128C25.8919 1.99748 26.3237 2.93588 26.3075 3.91508C26.3308 4.90108 25.8972 5.84628 25.1232 6.50418C24.3564 7.19778 23.4104 7.54458 22.287 7.54288H19.5601ZM19.5601 1.78668V6.04518H22.3282C22.9428 6.06218 23.534 5.83438 23.9622 5.41448C24.8294 4.61548 24.8509 3.29798 24.0052 2.47518C23.9909 2.46158 23.9766 2.44628 23.9622 2.43438C23.5412 2.00598 22.9446 1.77138 22.3282 1.78668H19.5601ZM30.113 3.86408C31.3349 3.86408 32.2971 4.17348 33.003 4.79228C33.7089 5.41108 34.0619 6.26108 34.0619 7.33718V12.4814H32.4834V11.322H32.4117C31.7273 12.2757 30.8172 12.7534 29.683 12.7534C28.7137 12.7534 27.9039 12.4814 27.2517 11.9357C26.6193 11.4291 26.2592 10.6794 26.2735 9.89228C26.2735 9.02868 26.6175 8.34188 27.3055 7.83188C27.9935 7.32188 28.9108 7.06518 30.0611 7.06518C31.0411 7.06518 31.8492 7.23518 32.4834 7.57518V7.21648C32.487 6.67928 32.2362 6.17098 31.8008 5.83098C31.3636 5.45698 30.7957 5.25298 30.2062 5.25978C29.2853 5.25978 28.5543 5.62868 28.0168 6.36648L26.5637 5.49778C27.361 4.40808 28.5453 3.86408 30.113 3.86408ZM27.9756 9.92628C27.9738 10.3309 28.178 10.7117 28.522 10.948C28.8875 11.22 29.3408 11.3662 29.8049 11.356C30.5018 11.3543 31.1701 11.0908 31.6628 10.6233C32.2093 10.1337 32.4834 9.56248 32.4834 8.90288C31.9674 8.51358 31.2507 8.31808 30.3298 8.31808C29.6597 8.31808 29.099 8.47108 28.651 8.77878C28.2013 9.09328 27.9756 9.47238 27.9756 9.92628ZM43.1277 4.13608L37.6147 16.1602H35.9109L37.9569 11.9527L34.3288 4.13608H36.1241L38.7453 10.1303H38.7811L41.3307 4.13608H43.1277Z" fill="black"/>
<path d="M14.4742 7.89042C14.4742 7.41272 14.433 6.93672 14.347 6.46582H7.38281V9.16372H11.3711C11.2062 10.0341 10.6741 10.8042 9.89652 11.2921V13.0448H12.2776C13.6716 11.8276 14.4742 10.0239 14.4742 7.89042Z" fill="#4285F4"/>
<path d="M7.38305 14.737C9.37538 14.737 11.0542 14.1165 12.2779 13.0455L9.89676 11.2928C9.23384 11.7195 8.38101 11.9626 7.38305 11.9626C5.45701 11.9626 3.82301 10.7301 3.23713 9.07092H0.786133V10.8763C2.0403 13.2444 4.59163 14.737 7.38305 14.737Z" fill="#34A853"/>
<path d="M3.23986 9.07139C2.9299 8.20269 2.9299 7.25918 3.23986 6.38878V4.58508H0.78707C-0.261055 6.56558 -0.261055 8.89798 0.78707 10.8785L3.23986 9.07139Z" fill="#FBBC04"/>
<path d="M7.38305 3.49915C8.43655 3.48385 9.45243 3.85955 10.2157 4.54975L12.3245 2.55055C10.9879 1.36055 9.21772 0.706055 7.38305 0.724755C4.59163 0.724755 2.03851 2.21905 0.786133 4.58545L3.23892 6.39085C3.82301 4.72995 5.45701 3.49915 7.38305 3.49915Z" fill="#EA4335"/>
</g>
<defs>
<clipPath id="clip0_1831_22244">
<rect width="43" height="16" fill="white"/>
</clipPath>
</defs>
</svg>
