<svg width="25" height="25" viewBox="0 0 25 25" fill="none" xmlns="http://www.w3.org/2000/svg">
<path d="M4.16732 19.793H2.08398C2.08398 16.3412 4.88221 13.543 8.334 13.543C11.7858 13.543 14.584 16.3412 14.584 19.793H12.5007C12.5007 17.4918 10.6352 15.6263 8.334 15.6263C6.03281 15.6263 4.16732 17.4918 4.16732 19.793ZM19.7924 16.668H17.709V13.543H14.584V11.4596H17.709V8.33464H19.7924V11.4596H22.9174V13.543H19.7924V16.668ZM8.334 12.5013C6.03281 12.5013 4.16732 10.6358 4.16732 8.33464C4.16732 6.03345 6.03281 4.16797 8.334 4.16797C10.6352 4.16797 12.5007 6.03345 12.5007 8.33464C12.4978 10.6346 10.634 12.4984 8.334 12.5013ZM8.334 6.2513C7.19587 6.25245 6.2693 7.16677 6.25299 8.30478C6.23668 9.44279 7.13667 10.3833 8.27431 10.4171C9.41194 10.4508 10.3661 9.56536 10.4173 8.42839V8.84505V8.33464C10.4173 7.18404 9.4846 6.2513 8.334 6.2513Z" fill="#333333"/>
</svg>
