<svg width="58" height="16" viewBox="0 0 58 16" fill="none" xmlns="http://www.w3.org/2000/svg">
<path d="M6.97052 0H2.49886C2.23583 0 1.97279 0.268905 1.84127 0.53781L0 12.3696C0 12.6385 0.131521 12.773 0.394559 12.773H2.49886C2.7619 12.773 3.02494 12.5041 3.15646 12.2352L3.68254 9.00832C3.68254 8.73942 3.94558 8.47051 4.34013 8.47051H5.78684C8.81178 8.47051 10.5215 6.99153 10.9161 4.03358C11.1791 2.8235 10.9161 1.74788 10.39 1.07562C9.6009 0.403357 8.54875 0 6.97052 0ZM7.49659 4.43693C7.23355 6.05036 6.04988 6.05036 4.86621 6.05036H4.20861L4.73469 2.95795C4.73469 2.8235 4.86621 2.68905 5.12925 2.68905H5.39229C6.1814 2.68905 6.97052 2.68905 7.36507 3.22686C7.49659 3.36131 7.62811 3.76467 7.49659 4.43693ZM20.517 4.30248H18.4127C18.2812 4.30248 18.0181 4.43693 18.0181 4.57139L17.8866 5.24365L17.7551 4.97474C17.229 4.30248 16.3084 4.03358 15.2562 4.03358C12.8889 4.03358 10.7846 5.91591 10.39 8.47051C10.127 9.81503 10.5215 11.0251 11.1791 11.8318C11.8367 12.6385 12.7574 12.9074 13.941 12.9074C15.9138 12.9074 16.966 11.6974 16.966 11.6974L16.8345 12.3696C16.8345 12.6385 16.966 12.773 17.229 12.773H19.2018C19.4648 12.773 19.7279 12.5041 19.8594 12.2352L21.0431 4.70584C20.9115 4.57139 20.6485 4.30248 20.517 4.30248ZM17.4921 8.60496C17.229 9.81503 16.3084 10.7562 14.9932 10.7562C14.3356 10.7562 13.8095 10.4873 13.5465 10.2184C13.2834 9.81503 13.1519 9.27722 13.1519 8.60496C13.2834 7.39489 14.3356 6.45372 15.5193 6.45372C16.1769 6.45372 16.5714 6.72263 16.966 6.99153C17.3605 7.39489 17.4921 8.06715 17.4921 8.60496Z" fill="#263B80"/>
<path d="M52.6068 4.30296H50.5025C50.371 4.30296 50.108 4.43741 50.108 4.57187L49.9764 5.24413L49.8449 4.97522C49.3188 4.30296 48.3982 4.03406 47.3461 4.03406C44.9787 4.03406 42.8744 5.91639 42.4799 8.47099C42.2168 9.81552 42.6114 11.0256 43.269 11.8323C43.9266 12.639 44.8472 12.9079 46.0309 12.9079C48.0037 12.9079 49.0558 11.6979 49.0558 11.6979L48.9243 12.3701C48.9243 12.639 49.0558 12.7735 49.3189 12.7735H51.2916C51.5547 12.7735 51.8177 12.5046 51.9492 12.2357L53.1329 4.70632C53.0014 4.57187 52.8699 4.30296 52.6068 4.30296ZM49.5819 8.60544C49.3188 9.81551 48.3982 10.7567 47.083 10.7567C46.4254 10.7567 45.8993 10.4878 45.6363 10.2189C45.3733 9.81552 45.2418 9.2777 45.2418 8.60544C45.3733 7.39537 46.4254 6.4542 47.6091 6.4542C48.2667 6.4542 48.6613 6.72311 49.0558 6.99201C49.5819 7.39537 49.7134 8.06763 49.5819 8.60544Z" fill="#139AD6"/>
<path d="M31.96 4.30261H29.7242C29.4611 4.30261 29.3296 4.43707 29.1981 4.57152L26.3047 9.1429L24.9895 4.84042C24.858 4.57152 24.7264 4.43707 24.3319 4.43707H22.2276C21.9645 4.43707 21.833 4.70597 21.833 4.97488L24.2004 12.1009L21.9645 15.3277C21.833 15.5966 21.9645 16 22.2276 16H24.3319C24.5949 16 24.7264 15.8655 24.8579 15.7311L32.0915 5.10933C32.4861 4.70597 32.223 4.30261 31.96 4.30261Z" fill="#263B80"/>
<path d="M55.1069 0.40405L53.2656 12.5048C53.2656 12.7737 53.3971 12.9081 53.6602 12.9081H55.5014C55.7645 12.9081 56.0275 12.6392 56.159 12.3703L58.0003 0.538503C58.0003 0.269598 57.8688 0.135144 57.6058 0.135144H55.5014C55.3699 0.000691116 55.2384 0.135145 55.1069 0.40405Z" fill="#139AD6"/>
<path d="M39.1932 0H34.7215C34.4585 0 34.1954 0.268905 34.0639 0.53781L32.2227 12.3696C32.2227 12.6385 32.3542 12.773 32.6172 12.773H34.9846C35.2476 12.773 35.3791 12.6385 35.3791 12.3696L35.9052 9.00832C35.9052 8.73942 36.1682 8.47051 36.5628 8.47051H38.0095C41.0344 8.47051 42.7442 6.99153 43.1387 4.03358C43.4018 2.8235 43.1387 1.74788 42.6127 1.07562C41.8236 0.403357 40.6399 0 39.1932 0ZM39.7192 4.43693C39.4562 6.05036 38.2725 6.05036 37.0889 6.05036H36.2997L36.8258 2.95795C36.8258 2.8235 36.9573 2.68905 37.2204 2.68905H37.4834C38.2725 2.68905 39.0617 2.68905 39.4562 3.22686C39.7192 3.36131 39.7192 3.76467 39.7192 4.43693Z" fill="#139AD6"/>
</svg>
