<svg width="21" height="21" viewBox="0 0 21 21" fill="none" xmlns="http://www.w3.org/2000/svg">
<path d="M15.7084 5.33268H17.7917C18.9423 5.33268 19.8751 6.26542 19.8751 7.41602V13.666C19.8751 14.8166 18.9423 15.7493 17.7917 15.7493H15.7084V19.916L11.5417 15.7493H7.37502C6.79972 15.7493 6.27889 15.5162 5.90188 15.1392M5.90188 15.1392L9.45836 11.5827H13.625C14.7756 11.5827 15.7084 10.6499 15.7084 9.49935V3.24935C15.7084 2.09876 14.7756 1.16602 13.625 1.16602H3.20834C2.05774 1.16602 1.125 2.09876 1.125 3.24935V9.49935C1.125 10.6499 2.05774 11.5827 3.20834 11.5827H5.29168V15.7493L5.90188 15.1392Z" stroke="#333333" stroke-width="2" stroke-linecap="round" stroke-linejoin="round"/>
</svg>
