<svg width="21" height="21" viewBox="0 0 21 21" fill="none" xmlns="http://www.w3.org/2000/svg">
<path d="M18.2396 11.5215C18.2813 11.1882 18.3126 10.8548 18.3126 10.5007C18.3126 10.1465 18.2813 9.81315 18.2396 9.47982L20.4376 7.76107C20.6355 7.60482 20.6876 7.32357 20.5626 7.0944L18.4792 3.49023C18.3855 3.32357 18.2084 3.22982 18.0209 3.22982C17.9584 3.22982 17.8959 3.24023 17.8438 3.26107L15.2501 4.30273C14.7084 3.88607 14.1251 3.54232 13.4896 3.2819L13.0938 0.521484C13.0625 0.271484 12.8438 0.0839844 12.5834 0.0839844H8.4167C8.15628 0.0839844 7.93753 0.271484 7.90628 0.521484L7.51045 3.2819C6.87503 3.54232 6.29169 3.89648 5.75003 4.30273L3.15627 3.26107C3.09377 3.24023 3.03127 3.22982 2.96877 3.22982C2.79168 3.22982 2.6146 3.32357 2.52085 3.49023L0.437508 7.0944C0.302091 7.32357 0.364592 7.60482 0.562509 7.76107L2.76043 9.47982C2.71877 9.81315 2.68752 10.1569 2.68752 10.5007C2.68752 10.8444 2.71877 11.1882 2.76043 11.5215L0.562509 13.2402C0.364592 13.3965 0.312508 13.6777 0.437508 13.9069L2.52085 17.5111C2.6146 17.6777 2.79168 17.7715 2.97918 17.7715C3.04168 17.7715 3.10418 17.7611 3.15627 17.7402L5.75003 16.6986C6.29169 17.1152 6.87503 17.459 7.51045 17.7194L7.90628 20.4798C7.93753 20.7298 8.15628 20.9173 8.4167 20.9173H12.5834C12.8438 20.9173 13.0625 20.7298 13.0938 20.4798L13.4896 17.7194C14.1251 17.459 14.7084 17.1048 15.2501 16.6986L17.8438 17.7402C17.9063 17.7611 17.9688 17.7715 18.0313 17.7715C18.2084 17.7715 18.3855 17.6777 18.4792 17.5111L20.5626 13.9069C20.6876 13.6777 20.6355 13.3965 20.4376 13.2402L18.2396 11.5215ZM16.1771 9.74023C16.2188 10.0632 16.2292 10.2819 16.2292 10.5007C16.2292 10.7194 16.2084 10.9486 16.1771 11.2611L16.0313 12.4382L16.9584 13.1673L18.0834 14.0423L17.3542 15.3027L16.0313 14.7715L14.948 14.334L14.0105 15.0423C13.5626 15.3757 13.1355 15.6257 12.7084 15.8027L11.6042 16.2507L11.4375 17.4277L11.2292 18.834H9.77087L9.57295 17.4277L9.40629 16.2507L8.30212 15.8027C7.8542 15.6152 7.43753 15.3756 7.02086 15.0631L6.07294 14.334L4.96877 14.7819L3.64585 15.3132L2.91668 14.0527L4.04169 13.1777L4.96877 12.4486L4.82294 11.2715C4.79169 10.9486 4.77086 10.709 4.77086 10.5007C4.77086 10.2923 4.79169 10.0527 4.82294 9.74023L4.96877 8.56315L4.04169 7.83398L2.91668 6.95898L3.64585 5.69857L4.96877 6.22982L6.05211 6.66732L6.98961 5.95898C7.43753 5.62565 7.86462 5.37565 8.2917 5.19857L9.39587 4.75065L9.56254 3.57357L9.77087 2.16732H11.2188L11.4167 3.57357L11.5834 4.75065L12.6875 5.19857C13.1355 5.38607 13.5521 5.62565 13.9688 5.93815L14.9167 6.66732L16.0209 6.2194L17.3438 5.68815L18.073 6.94857L16.9584 7.83398L16.0313 8.56315L16.1771 9.74023ZM10.5 6.33398C8.19795 6.33398 6.33336 8.19857 6.33336 10.5007C6.33336 12.8027 8.19795 14.6673 10.5 14.6673C12.8021 14.6673 14.6667 12.8027 14.6667 10.5007C14.6667 8.19857 12.8021 6.33398 10.5 6.33398ZM10.5 12.584C9.3542 12.584 8.4167 11.6465 8.4167 10.5007C8.4167 9.35482 9.3542 8.41732 10.5 8.41732C11.6459 8.41732 12.5834 9.35482 12.5834 10.5007C12.5834 11.6465 11.6459 12.584 10.5 12.584Z" fill="#323232"/>
</svg>
