<svg width="34" height="34" viewBox="0 0 34 34" fill="none" xmlns="http://www.w3.org/2000/svg">
<path d="M17 0.75C13.8483 0.755988 10.7663 1.67838 8.12952 3.40483C5.4927 5.13127 3.41485 7.58725 2.14905 10.4736C0.883247 13.36 0.48413 16.5522 1.00031 19.6614C1.51649 22.7705 2.92569 25.6625 5.05627 27.985L5.20252 28.1475C6.721 29.7506 8.55027 31.0274 10.5786 31.8999C12.607 32.7725 14.7919 33.2225 17 33.2225C19.2081 33.2225 21.393 32.7725 23.4214 31.8999C25.4498 31.0274 27.279 29.7506 28.7975 28.1475L28.9438 27.985C31.0743 25.6625 32.4835 22.7705 32.9997 19.6614C33.5159 16.5522 33.1168 13.36 31.851 10.4736C30.5852 7.58725 28.5073 5.13127 25.8705 3.40483C23.2337 1.67838 20.1517 0.755988 17 0.75ZM6.61627 24.7838C4.91864 22.5439 3.99981 19.8105 3.99981 17C3.99981 14.1895 4.91864 11.4561 6.61627 9.21625C7.82101 10.125 8.79836 11.3011 9.47136 12.6518C10.1444 14.0025 10.4947 15.4909 10.4947 17C10.4947 18.5091 10.1444 19.9975 9.47136 21.3482C8.79836 22.6989 7.82101 23.875 6.61627 24.7838ZM17 30C14.0414 30.0049 11.1716 28.989 8.87502 27.1237C10.3875 25.9053 11.6078 24.3635 12.4461 22.6116C13.2845 20.8597 13.7197 18.9422 13.7197 17C13.7197 15.0578 13.2845 13.1403 12.4461 11.3884C11.6078 9.63646 10.3875 8.09465 8.87502 6.87625C11.1744 5.01614 14.0424 4.00133 17 4.00133C19.9576 4.00133 22.8256 5.01614 25.125 6.87625C23.6125 8.09465 22.3923 9.63646 21.5539 11.3884C20.7155 13.1403 20.2804 15.0578 20.2804 17C20.2804 18.9422 20.7155 20.8597 21.5539 22.6116C22.3923 24.3635 23.6125 25.9053 25.125 27.1237C22.8284 28.989 19.9587 30.0049 17 30ZM27.3838 24.7838C26.179 23.875 25.2017 22.6989 24.5287 21.3482C23.8557 19.9975 23.5054 18.5091 23.5054 17C23.5054 15.4909 23.8557 14.0025 24.5287 12.6518C25.2017 11.3011 26.179 10.125 27.3838 9.21625C29.0814 11.4561 30.0002 14.1895 30.0002 17C30.0002 19.8105 29.0814 22.5439 27.3838 24.7838Z" fill="white"/>
</svg>
