<svg width="60" height="60" viewBox="0 0 60 60" fill="none" xmlns="http://www.w3.org/2000/svg">
<rect width="60" height="60" rx="30" fill="#333333"/>
<path d="M30 13.75C26.8483 13.756 23.7663 14.6784 21.1295 16.4048C18.4927 18.1313 16.4148 20.5873 15.149 23.4736C13.8832 26.36 13.4841 29.5522 14.0003 32.6614C14.5165 35.7705 15.9257 38.6625 18.0563 40.985L18.2025 41.1475C19.721 42.7506 21.5503 44.0274 23.5786 44.8999C25.607 45.7725 27.7919 46.2225 30 46.2225C32.2081 46.2225 34.393 45.7725 36.4214 44.8999C38.4498 44.0274 40.279 42.7506 41.7975 41.1475L41.9438 40.985C44.0743 38.6625 45.4835 35.7705 45.9997 32.6614C46.5159 29.5522 46.1168 26.36 44.851 23.4736C43.5852 20.5873 41.5073 18.1313 38.8705 16.4048C36.2337 14.6784 33.1517 13.756 30 13.75ZM19.6163 37.7838C17.9186 35.5439 16.9998 32.8105 16.9998 30C16.9998 27.1895 17.9186 24.4561 19.6163 22.2163C20.821 23.125 21.7984 24.3011 22.4714 25.6518C23.1444 27.0025 23.4947 28.4909 23.4947 30C23.4947 31.5091 23.1444 32.9975 22.4714 34.3482C21.7984 35.6989 20.821 36.875 19.6163 37.7838ZM30 43C27.0414 43.0049 24.1716 41.989 21.875 40.1237C23.3875 38.9053 24.6078 37.3635 25.4461 35.6116C26.2845 33.8597 26.7197 31.9422 26.7197 30C26.7197 28.0578 26.2845 26.1403 25.4461 24.3884C24.6078 22.6365 23.3875 21.0947 21.875 19.8762C24.1744 18.0161 27.0424 17.0013 30 17.0013C32.9576 17.0013 35.8256 18.0161 38.125 19.8762C36.6125 21.0947 35.3923 22.6365 34.5539 24.3884C33.7155 26.1403 33.2804 28.0578 33.2804 30C33.2804 31.9422 33.7155 33.8597 34.5539 35.6116C35.3923 37.3635 36.6125 38.9053 38.125 40.1237C35.8284 41.989 32.9587 43.0049 30 43ZM40.3838 37.7838C39.179 36.875 38.2017 35.6989 37.5287 34.3482C36.8557 32.9975 36.5054 31.5091 36.5054 30C36.5054 28.4909 36.8557 27.0025 37.5287 25.6518C38.2017 24.3011 39.179 23.125 40.3838 22.2163C42.0814 24.4561 43.0002 27.1895 43.0002 30C43.0002 32.8105 42.0814 35.5439 40.3838 37.7838Z" fill="white"/>
</svg>
