<svg width="25" height="25" viewBox="0 0 25 25" fill="none" xmlns="http://www.w3.org/2000/svg">
<path d="M8.38684 18.5713L9.06758 18.9352C10.1225 19.4992 11.3006 19.7935 12.4969 19.7917L12.5 19.7917C16.5273 19.7917 19.7917 16.5272 19.7917 12.5C19.7917 8.47278 16.5273 5.20833 12.5 5.20833C8.47281 5.20833 5.20835 8.47278 5.20835 12.5V12.5031C5.20655 13.6994 5.50076 14.8775 6.06477 15.9324L6.42871 16.6132L5.8691 19.1309L8.38684 18.5713ZM3.12501 21.875L4.22751 16.9147C3.50145 15.5566 3.12269 14.04 3.12501 12.5C3.12501 7.32219 7.32221 3.125 12.5 3.125C17.6779 3.125 21.8751 7.32219 21.8751 12.5C21.8751 17.6778 17.6779 21.875 12.5 21.875C10.9601 21.8773 9.44342 21.4986 8.08534 20.7725L3.12501 21.875Z" fill="#333333"/>
</svg>
