<svg width="30" height="30" viewBox="0 0 30 30" fill="none" xmlns="http://www.w3.org/2000/svg">
<path d="M11.0519 26.25C8.01913 26.25 5.19204 25.3679 2.8125 23.8459C4.83281 23.9766 8.39819 23.6635 10.6159 21.5482C7.27976 21.3952 5.77525 18.8365 5.579 17.7431C5.86246 17.8524 7.21435 17.9836 7.9775 17.6775C4.1399 16.7153 3.55118 13.3475 3.68201 12.3197C4.40156 12.8226 5.62261 12.9976 6.10231 12.9539C2.52637 10.3952 3.81284 6.54634 4.44517 5.71533C7.0114 9.27062 10.8574 11.2674 15.6154 11.3785C15.5256 10.985 15.4783 10.5754 15.4783 10.1547C15.4783 7.13523 17.9188 4.6875 20.9294 4.6875C22.5024 4.6875 23.9198 5.35571 24.9147 6.42454C25.9658 6.17822 27.5478 5.60163 28.3211 5.103C27.9313 6.5026 26.7178 7.67015 25.9837 8.10288C25.9898 8.11761 25.9777 8.0881 25.9837 8.10288C26.6285 8.00535 28.3732 7.67003 29.0625 7.2024C28.7216 7.98867 27.435 9.296 26.3791 10.0279C26.5756 18.6919 19.9467 26.25 11.0519 26.25Z" fill="#47ACDF"/>
</svg>
