<svg width="26" height="26" viewBox="0 0 26 26" fill="none" xmlns="http://www.w3.org/2000/svg">
<path d="M3 8C3 5.23858 5.23858 3 8 3C10.7614 3 13 5.23858 13 8C13 10.7614 10.7614 13 8 13C5.23858 13 3 10.7614 3 8ZM8 11C9.65685 11 11 9.65685 11 8C11 6.34315 9.65685 5 8 5C6.34315 5 5 6.34315 5 8C5 9.65685 6.34315 11 8 11Z" fill="#7B838A"/>
<path d="M2.34315 16.3431C0.842855 17.8434 0 19.8783 0 22H2C2 20.4087 2.63214 18.8826 3.75736 17.7574C4.88258 16.6321 6.4087 16 8 16C9.5913 16 11.1174 16.6321 12.2426 17.7574C13.3679 18.8826 14 20.4087 14 22H16C16 19.8783 15.1571 17.8434 13.6569 16.3431C12.1566 14.8429 10.1217 14 8 14C5.87827 14 3.84344 14.8429 2.34315 16.3431Z" fill="#7B838A"/>
<path fill-rule="evenodd" clip-rule="evenodd" d="M24.7071 13.2929C25.0977 13.6834 25.0977 14.3166 24.7071 14.7071L20.7071 18.7071C20.3166 19.0976 19.6834 19.0976 19.2929 18.7071L15.2929 14.7071C14.9024 14.3166 14.9024 13.6834 15.2929 13.2929C15.6834 12.9024 16.3166 12.9024 16.7071 13.2929L19 15.5858V8C19 7.44771 19.4477 7 20 7C20.5523 7 21 7.44771 21 8V15.5858L23.2929 13.2929C23.6834 12.9024 24.3166 12.9024 24.7071 13.2929Z" fill="#7B838A"/>
</svg>
